<?xml version="1.0" encoding="UTF-8" standalone="no"?>
<!-- Created with Inkscape (http://www.inkscape.org/) -->

<svg
   xmlns:dc="http://purl.org/dc/elements/1.1/"
   xmlns:cc="http://creativecommons.org/ns#"
   xmlns:rdf="http://www.w3.org/1999/02/22-rdf-syntax-ns#"
   xmlns:svg="http://www.w3.org/2000/svg"
   xmlns="http://www.w3.org/2000/svg"
   xmlns:sodipodi="http://sodipodi.sourceforge.net/DTD/sodipodi-0.dtd"
   xmlns:inkscape="http://www.inkscape.org/namespaces/inkscape"
   width="192.6123mm"
   height="296.43533mm"
   viewBox="0 0 192.6123 296.43533"
   version="1.1"
   id="svg8"
   inkscape:version="0.92.3 (2405546, 2018-03-11)"
   sodipodi:docname="Golf clubs.svg">
  <title
     id="title165">Golf clubs</title>
  <defs
     id="defs2" />
  <sodipodi:namedview
     id="base"
     pagecolor="#ffffff"
     bordercolor="#666666"
     borderopacity="1.0"
     inkscape:pageopacity="0.0"
     inkscape:pageshadow="2"
     inkscape:zoom="0.35355339"
     inkscape:cx="677.07351"
     inkscape:cy="670.4077"
     inkscape:document-units="mm"
     inkscape:current-layer="layer1"
     showgrid="false"
     fit-margin-top="0"
     fit-margin-left="0"
     fit-margin-right="0"
     fit-margin-bottom="0"
     inkscape:window-width="1600"
     inkscape:window-height="845"
     inkscape:window-x="0"
     inkscape:window-y="27"
     inkscape:window-maximized="1" />
  <metadata
     id="metadata5">
    <rdf:RDF>
      <cc:Work
         rdf:about="">
        <dc:format>image/svg+xml</dc:format>
        <dc:type
           rdf:resource="http://purl.org/dc/dcmitype/StillImage" />
        <dc:title>Golf clubs</dc:title>
        <dc:date>2021</dc:date>
        <dc:creator>
          <cc:Agent>
            <dc:title>Doodleguy</dc:title>
          </cc:Agent>
        </dc:creator>
        <dc:rights>
          <cc:Agent>
            <dc:title>Public domain</dc:title>
          </cc:Agent>
        </dc:rights>
        <cc:license
           rdf:resource="http://creativecommons.org/publicdomain/zero/1.0/" />
      </cc:Work>
      <cc:License
         rdf:about="http://creativecommons.org/publicdomain/zero/1.0/">
        <cc:permits
           rdf:resource="http://creativecommons.org/ns#Reproduction" />
        <cc:permits
           rdf:resource="http://creativecommons.org/ns#Distribution" />
        <cc:permits
           rdf:resource="http://creativecommons.org/ns#DerivativeWorks" />
      </cc:License>
    </rdf:RDF>
  </metadata>
  <g
     inkscape:groupmode="layer"
     id="layer2"
     inkscape:label="bund"
     transform="translate(-1.6746248,-0.28294162)" />
  <g
     inkscape:label="Layer 1"
     inkscape:groupmode="layer"
     id="layer1"
     transform="translate(-1.6746248,-0.28294162)">
    <g
       id="g163">
      <path
         transform="scale(0.26458333)"
         inkscape:connector-curvature="0"
         id="path24"
         d="m 200.00998,361.85404 c -5.423,9.21044 -6.86993,20.5145 -10.2223,30.65472 -17.47203,66.49549 -34.83191,133.19649 -44.98171,201.28096 -5.08245,27.42587 -10.28527,54.82482 -13.65375,82.52627 -4.62155,31.72529 -12.96959,62.77861 -16.49735,94.69337 -5.71616,40.60906 -11.02345,81.36804 -11.36145,122.4453 0.21538,9.49822 4.66391,18.55553 7.44313,27.60819 5.36118,12.52835 15.10935,22.55157 25.36813,31.34764 11.45006,7.43948 25.00962,10.93956 37.32875,16.70541 18.10752,6.58458 36.45757,13.49797 55.31188,17.25453 7.9936,-9.13891 11.88646,-21.31452 18.12723,-31.68654 12.04017,-23.46029 31.33079,-42.09419 49.99891,-60.30722 12.75634,-12.72545 28.81196,-22.28811 46.71401,-25.36966 13.70405,-2.90277 27.8336,-2.35576 41.70376,-2.51316 9.45701,-41.78088 20.71188,-83.14041 30.188,-124.90683 3.21007,-20.91535 9.39966,-41.17634 12.6995,-62.06605 1.7997,-10.07166 5.11892,-19.7291 6.0257,-29.9436 6.22573,-26.09998 4.31695,-54.14096 14.77155,-79.16607 3.35608,-8.15781 13.55166,-5.41688 20.34281,-6.56051 5.25676,-0.65875 13.025,0.20591 14.66528,-6.46054 7.59096,-25.56771 9.9487,-52.39124 15.51599,-78.42978 5.06911,-24.0397 9.85655,-48.31568 13.16673,-72.57993 -20.58282,0.29718 -41.00705,3.71256 -61.63722,3.43888 -45.7369,0.65765 -91.86488,1.89192 -137.2252,-4.89912 -5.3021,-0.51554 -8.91254,-4.90031 -14.45,-4.6041 -13.47632,-0.96269 -25.15402,-8.71792 -38.36301,-11.06637 -10.80638,-3.53457 -21.3294,-7.88161 -31.98098,-11.88386 -10.16208,-4.20475 -18.9862,-11.19338 -28.99839,-15.51193 z m 46.5601,142.52732 c 21.93055,2.45509 40.61142,16.50235 62.30395,20.27845 18.64448,3.16006 39.16723,7.86572 56.96729,-1.21151 4.4894,-1.1632 10.02232,-5.57553 14.65026,-3.1321 -0.85399,9.80275 -5.47151,19.27309 -7.20672,29.08058 -10.60104,44.51297 -20.37811,89.21989 -31.31391,133.65338 -7.5061,35.29318 -14.72815,70.64214 -23.12354,105.73961 -6.95731,28.73158 -11.62035,58.7525 -25.67474,85.10797 -8.18364,15.48932 -24.15993,23.84302 -37.77013,33.78187 -11.09004,4.68298 -23.73819,4.49634 -35.62323,4.61959 -11.9109,-1.23624 -22.49281,-8.70766 -30.73857,-17.01336 -8.12069,-12.79707 -5.27286,-29.19769 -2.52946,-43.22468 5.52251,-33.34189 13.53924,-66.2321 17.22365,-99.88474 5.87043,-48.46894 13.55065,-96.72898 22.10571,-144.76279 4.56722,-32.69082 6.93273,-65.84045 13.6918,-98.13953 0.76806,-3.24541 3.83779,-5.0297 7.03764,-4.89274 z"
         style="opacity:1;vector-effect:none;fill:#d45500;fill-opacity:1;stroke:none;stroke-width:1.42921507;stroke-linecap:round;stroke-linejoin:miter;stroke-miterlimit:4;stroke-dasharray:none;stroke-dashoffset:0;stroke-opacity:1" />
      <path
         transform="scale(0.26458333)"
         inkscape:connector-curvature="0"
         id="path26"
         d="m 231.22922,983.13587 c -0.2277,0.1697 -0.35516,0.45011 -0.54414,0.66139 -0.63863,0.83382 -1.29917,1.64804 -1.98457,2.44363 -0.11172,-0.0163 -0.33492,-0.12143 -0.35952,0.0554 0.0248,0.17309 0.27596,0.14677 0.40291,0.20522 0.21173,0.0716 0.48128,0.088 0.62948,-0.11306 0.57746,-0.66647 1.00298,-1.44821 1.46276,-2.19684 0.17377,-0.31274 0.37761,-0.61293 0.51853,-0.94188 0.009,-0.0654 -0.0585,-0.13367 -0.12545,-0.11388 z"
         style="opacity:1;vector-effect:none;fill:#d45500;fill-opacity:1;stroke:none;stroke-width:0.04466297;stroke-linecap:round;stroke-linejoin:miter;stroke-miterlimit:4;stroke-dasharray:none;stroke-dashoffset:0;stroke-opacity:1" />
      <path
         transform="scale(0.26458333)"
         inkscape:connector-curvature="0"
         id="path28"
         d="m 519.6115,408.10708 c -3.42269,2.41162 -2.80523,7.77748 -4.01267,11.41848 -4.84613,27.05466 -0.39494,54.537 -1.39195,81.79163 0.0887,51.99379 -5.68104,103.84468 -14.60438,155.01481 -8.6387,50.00482 -24.21806,98.9929 -47.88174,143.94867 -5.89546,11.74931 -14.13078,21.98364 -22.36482,32.13054 -3.75346,5.65734 -2.47525,12.99538 -4.48157,19.27477 -1.90999,10.29631 -4.39402,20.52481 -7.79478,30.39727 1.58301,2.04674 4.8996,-0.58063 6.79063,-1.14895 10.93243,-7.72699 19.48197,-18.35127 29.19416,-27.49632 5.71688,-5.99145 12.00495,-11.55246 17.85233,-17.32097 3.01205,-9.21635 10.83758,-15.83387 15.73892,-24.04907 18.90451,-27.80817 30.68035,-59.67459 41.63295,-91.25365 7.42183,-20.62071 12.93826,-41.93542 15.20439,-63.76929 4.39102,-31.54606 6.84033,-63.32264 7.45189,-95.16572 0.72103,-19.50258 1.51474,-39.09684 -1.31924,-58.48305 -2.28404,-22.00518 -4.45514,-44.43274 -13.31945,-64.96681 -4.16304,-9.82194 -7.60773,-20.26907 -13.97756,-28.92301 -0.75533,-0.64831 -1.62906,-1.53428 -2.71711,-1.39933 z"
         style="opacity:1;vector-effect:none;fill:#d45500;fill-opacity:1;stroke:none;stroke-width:1.01060772;stroke-linecap:round;stroke-linejoin:miter;stroke-miterlimit:4;stroke-dasharray:none;stroke-dashoffset:0;stroke-opacity:1" />
      <path
         transform="scale(0.26458333)"
         inkscape:connector-curvature="0"
         id="path30"
         d="m 470.60429,836.30292 c -0.0508,0.0156 -0.0809,0.0633 -0.11991,0.0962 -0.27434,0.2691 -0.55024,0.53689 -0.82461,0.80621 -0.0445,0.0417 -0.0414,0.12265 0.0108,0.15642 0.0404,0.0316 0.0955,0.0183 0.13541,-0.007 0.18524,-0.0926 0.35178,-0.21954 0.49619,-0.36753 0.16283,-0.16099 0.30164,-0.34563 0.41611,-0.54367 0.0286,-0.0568 -0.0101,-0.13365 -0.0739,-0.14133 -0.0131,-0.004 -0.0267,1.4e-4 -0.0401,4.7e-4 z"
         style="opacity:1;vector-effect:none;fill:#d45500;fill-opacity:1;stroke:none;stroke-width:0.00538878;stroke-linecap:round;stroke-linejoin:miter;stroke-miterlimit:4;stroke-dasharray:none;stroke-dashoffset:0;stroke-opacity:1" />
      <path
         transform="scale(0.26458333)"
         inkscape:connector-curvature="0"
         id="path32"
         d="m 240.38541,267.0342 c -2.96711,0.85284 -5.0787,3.39705 -7.34326,5.35743 -3.51401,3.5879 -7.61245,6.9561 -9.37648,11.82713 -7.21578,16.96445 -13.25654,34.40577 -19.09959,51.88234 -1.78645,5.85469 -3.99238,11.63727 -5.01611,17.68799 -0.0193,1.76088 1.82598,2.79981 2.90869,3.94433 6.18428,4.9879 13.08356,9.16066 20.43548,12.18467 3.74033,1.09562 7.0137,3.26278 10.21133,5.44388 6.17166,3.26828 12.93496,5.22663 19.51184,7.50244 16.38551,5.38095 33.08051,9.77146 49.95273,13.33448 13.09984,2.81299 26.16819,5.82488 39.36417,8.15242 14.31224,1.48411 28.72388,1.66183 43.09914,1.96641 20.72854,0.0342 41.46256,0.0288 62.18556,-0.4925 19.70383,-0.70821 39.67841,-1.13186 58.85061,-6.21268 6.4774,-1.72007 12.80402,-5.08408 16.64297,-10.74791 4.99365,-7.09686 8.06553,-15.64748 8.10798,-24.36949 0.39542,-13.02438 0.11837,-26.10914 -1.4521,-39.05381 -0.85683,-5.59894 -1.71495,-11.45886 -4.70318,-16.37929 -1.8079,-2.55336 -5.37257,-1.96598 -8.06975,-1.88164 -11.53782,0.80337 -22.54935,4.60845 -33.53375,7.93828 -18.87325,5.24108 -38.52101,6.87549 -58.01446,7.93017 -16.80527,0.71357 -33.68005,1.13637 -50.46342,-0.19849 -12.39107,-0.95491 -24.47756,-4.19097 -36.11214,-8.47716 -7.27126,-2.53957 -14.49682,-5.59885 -22.18586,-6.59779 -2.16331,-0.051 -4.67084,-0.24709 -6.07325,-2.15869 -4.18382,-3.77154 -9.43003,-6.08247 -14.28662,-8.84082 -11.03762,-5.69348 -21.92606,-11.70595 -32.17564,-18.73576 -6.69441,-4.24591 -13.69966,-8.18689 -21.25698,-10.66707 -0.68903,-0.16396 -1.39374,-0.36438 -2.10791,-0.33887 z"
         style="opacity:1;vector-effect:none;fill:#ffccaa;fill-opacity:1;stroke:none;stroke-width:0.34488189;stroke-linecap:round;stroke-linejoin:miter;stroke-miterlimit:4;stroke-dasharray:none;stroke-dashoffset:0;stroke-opacity:1" />
      <path
         transform="scale(0.26458333)"
         inkscape:connector-curvature="0"
         id="path34"
         d="m 377.59543,253.58075 c -6.7019,-0.0335 -13.42612,0.34498 -19.97454,1.85942 -1.02903,0.33127 -2.38053,0.26243 -3.23494,0.8857 2.52485,13.10411 5.47082,26.13294 8.53323,39.12304 1.66868,6.1718 2.91611,12.63916 6.19089,18.21143 1.16792,2.04191 3.30546,3.3796 5.66512,3.47323 7.40344,1.07353 14.91323,0.41299 22.35962,0.34728 2.55367,-0.19976 5.3439,0.0284 7.69743,-1.12276 1.0336,-1.18016 0.63667,-3.03309 1.05907,-4.46107 1.26972,-10.18139 2.64907,-20.36455 3.34572,-30.60387 0.10432,-5.53998 0.43181,-11.12588 -0.23096,-16.64013 -0.7014,-3.77064 -2.97987,-7.56125 -6.81746,-8.76516 -7.06216,-2.33151 -14.63294,-2.11351 -21.98038,-2.30505 -0.87093,-0.006 -1.74187,-0.006 -2.6128,-0.002 z"
         style="opacity:1;vector-effect:none;fill:#ffb380;fill-opacity:1;stroke:none;stroke-width:0.34488189;stroke-linecap:round;stroke-linejoin:miter;stroke-miterlimit:4;stroke-dasharray:none;stroke-dashoffset:0;stroke-opacity:1" />
      <path
         transform="scale(0.26458333)"
         inkscape:connector-curvature="0"
         id="path36"
         d="m 438.01681,267.3371 c -0.78312,0.21342 -0.20263,1.63098 -0.51304,2.21737 -0.82915,11.65692 -1.9526,23.3102 -2.12386,35.00088 0.13094,2.64346 -0.22784,5.4332 0.55145,7.98145 1.38991,1.73195 3.90771,1.72648 5.90088,2.16797 6.7004,0.13722 13.58312,0.14423 20.04932,-1.83105 5.95635,-2.35793 10.00569,-7.67056 14.02344,-12.40723 3.919,-5.06101 7.86227,-10.18096 10.88671,-15.83838 0.66799,-0.97758 0.39605,-2.16552 -0.55224,-2.84521 -3.98487,-3.61564 -9.15472,-5.55774 -14.0268,-7.66206 -6.50702,-2.48551 -13.1626,-4.87917 -20.09417,-5.8098 -4.6884,-0.44 -9.3924,-0.87938 -14.10169,-0.97394 z"
         style="opacity:1;vector-effect:none;fill:#ffb380;fill-opacity:1;stroke:none;stroke-width:0.34488189;stroke-linecap:round;stroke-linejoin:miter;stroke-miterlimit:4;stroke-dasharray:none;stroke-dashoffset:0;stroke-opacity:1" />
      <path
         transform="scale(0.26458333)"
         inkscape:connector-curvature="0"
         id="path38"
         d="m 302.16037,248.99823 c -8.91268,0.24438 -17.86978,0.73424 -26.6499,2.35449 -2.88203,0.56939 -6.52469,1.87833 -7.01514,5.21973 -0.63756,7.27567 0.37344,15.47987 5.80213,20.86243 3.15334,3.34087 7.7745,4.3286 11.99572,5.58825 2.29839,0.62463 4.18617,2.03791 5.98486,3.52149 1.90316,0.48837 3.44361,-1.31746 4.70508,-2.4834 6.12454,-6.83049 10.00281,-15.38375 12.81321,-24.03745 0.64599,-2.6817 1.90946,-5.55433 1.13454,-8.32925 -0.9008,-2.32716 -3.6778,-2.78526 -5.87589,-2.68103 -0.96461,-0.027 -1.92977,-0.0254 -2.89461,-0.0153 z"
         style="opacity:1;vector-effect:none;fill:#ffb380;fill-opacity:1;stroke:none;stroke-width:0.34488189;stroke-linecap:round;stroke-linejoin:miter;stroke-miterlimit:4;stroke-dasharray:none;stroke-dashoffset:0;stroke-opacity:1" />
      <path
         transform="scale(0.26458333)"
         inkscape:connector-curvature="0"
         id="path40"
         d="m 330.10666,278.6579 c -1.87075,0.26687 -1.60568,2.68239 -2.27393,3.98047 -1.79124,4.74244 -5.54295,8.4418 -7.37451,13.14795 -0.76035,2.32729 1.52029,4.03427 3.388,4.85038 4.28363,1.97987 8.77216,3.55895 13.31366,4.81807 1.19727,0.15822 2.95917,-0.21726 2.80371,-1.77978 0.36742,-6.27512 -1.98297,-12.31992 -4.29476,-18.03545 -1.20839,-2.33764 -2.05194,-5.2119 -4.34098,-6.73555 -0.375,-0.18993 -0.80253,-0.27019 -1.22119,-0.24609 z"
         style="opacity:1;vector-effect:none;fill:#ffb380;fill-opacity:1;stroke:none;stroke-width:0.34488189;stroke-linecap:round;stroke-linejoin:miter;stroke-miterlimit:4;stroke-dasharray:none;stroke-dashoffset:0;stroke-opacity:1" />
      <path
         transform="scale(0.26458333)"
         inkscape:connector-curvature="0"
         id="path42"
         d="m 247.98577,513.24796 c -3.92672,-0.11295 -4.06541,4.88177 -4.6914,7.63183 -2.36827,15.49414 -3.15433,31.19043 -5.82042,46.64892 -9.28291,57.87043 -18.79042,115.72281 -26.15854,173.87516 -4.34706,34.28039 -10.93138,68.20971 -16.72317,102.2605 -2.15748,13.26878 -4.95082,26.82586 -3.13869,40.29843 0.55213,6.4308 6.40005,10.168 11.35195,13.2693 7.13315,4.50647 15.34763,7.78344 23.93115,7.11026 13.69073,-0.23203 27.31775,-4.136 38.68889,-11.86 13.02715,-7.96694 22.87054,-20.54128 28.0613,-34.84753 6.60211,-17.55143 12.37427,-35.42271 17.81143,-53.36539 2.39599,-7.42676 1.11736,-15.60727 4.69239,-22.70312 5.19516,-19.22423 8.78519,-38.8476 13.17442,-58.26681 4.26403,-19.44352 7.06215,-39.19739 11.55116,-58.5789 2.40073,-6.24569 4.57505,-12.59695 5.92424,-19.18052 2.42109,-10.52781 4.73872,-21.08355 8.04842,-31.37123 1.57815,-5.774 0.20194,-12.3391 3.7373,-17.51758 2.14915,-7.84438 1.65224,-16.15883 3.50729,-24.08517 2.03891,-12.41071 6.90707,-24.10083 9.63236,-36.33768 0.67457,-2.22114 0.37032,-6.23783 -2.8125,-5.92871 -6.81091,0.94439 -13.59005,2.31517 -20.52148,2.20898 -19.21128,0.14022 -38.56821,-1.46309 -57.27652,-5.92773 -8.61347,-2.18926 -16.26276,-6.98148 -24.86089,-9.27126 -5.91127,-1.73291 -11.90017,-3.85856 -18.10869,-4.06175 z m 49.75196,25.90723 c 5.2252,0.0288 11.33515,-0.38601 15.12731,3.97207 2.18714,2.52859 5.57868,5.79076 4.44691,9.4625 -2.49845,4.02027 -2.19936,9.22021 -5.06348,12.98242 -4.86086,4.23847 -11.95115,3.58348 -17.96973,3.9375 -4.33923,0.1575 -9.81428,-0.27337 -11.72851,-4.89063 -3.71605,-6.34831 -1.61963,-14.46106 1.90988,-20.41446 1.43838,-3.60183 5.19051,-5.15235 8.85672,-4.9703 1.47275,-0.0644 2.94696,-0.0746 4.4209,-0.0791 z"
         style="opacity:1;vector-effect:none;fill:#aa4400;fill-opacity:1;stroke:none;stroke-width:0.68976378;stroke-linecap:round;stroke-linejoin:miter;stroke-miterlimit:4;stroke-dasharray:none;stroke-dashoffset:0;stroke-opacity:1" />
      <path
         transform="scale(0.26458333)"
         inkscape:connector-curvature="0"
         id="path44"
         d="m 353.36096,527.57443 c -0.28213,0.0444 -0.56178,0.10483 -0.84364,0.1516 -2.40521,0.42197 -4.83884,0.68181 -7.27729,0.80736 -0.15597,0.0107 -0.31383,0.0117 -0.46914,0.0278 -0.0881,0.0116 -0.10674,0.14699 -0.0252,0.18219 0.0711,0.0278 0.15313,0.008 0.22869,0.0144 2.02599,-0.006 4.05609,-0.1349 6.05417,-0.48059 0.79217,-0.13718 1.57962,-0.30318 2.35838,-0.50291 0.0786,-0.016 0.10795,-0.1291 0.0413,-0.17717 -0.0177,-0.0161 -0.0435,-0.0231 -0.0673,-0.0227 z"
         style="opacity:1;vector-effect:none;fill:#d45500;fill-opacity:1;stroke:none;stroke-width:0.01077756;stroke-linecap:round;stroke-linejoin:miter;stroke-miterlimit:4;stroke-dasharray:none;stroke-dashoffset:0;stroke-opacity:1" />
      <path
         transform="scale(0.26458333)"
         inkscape:connector-curvature="0"
         id="path46"
         d="m 475.07105,572.78416 c -6.97024,0.18256 -13.95051,0.40475 -20.90177,0.93774 -0.85253,2.41648 -1.34173,5.03274 -2.03965,7.52644 -1.68777,7.01271 -3.75695,13.94909 -4.97535,21.0652 -0.40278,3.09728 -0.9169,6.66687 1.02565,9.37254 2.10435,2.56674 5.69053,2.93909 8.76349,3.35581 5.28757,0.48827 10.6029,0.85767 15.91274,0.86715 0.90449,-0.16029 0.53857,-1.48777 0.8713,-2.11806 2.73016,-12.6762 5.39203,-25.37115 8.34141,-37.99571 0.31165,-1.05265 -0.12913,-2.30654 -1.27053,-2.59748 -1.84298,-0.554 -3.82846,-0.36624 -5.72729,-0.41363 z"
         style="opacity:1;vector-effect:none;fill:#aa4400;fill-opacity:1;stroke:none;stroke-width:0.24386832;stroke-linecap:round;stroke-linejoin:miter;stroke-miterlimit:4;stroke-dasharray:none;stroke-dashoffset:0;stroke-opacity:1" />
      <path
         transform="scale(0.26458333)"
         inkscape:connector-curvature="0"
         id="path48"
         d="m 448.00936,620.42193 c -3.23357,0.0267 -4.47912,3.63819 -4.7461,6.31111 -2.64074,16.5153 -6.15076,32.87028 -9.43298,49.26715 -4.81647,23.17928 -8.0807,46.66042 -13.48118,69.7166 -4.50847,18.46862 -10.24859,36.62842 -14.12996,55.25513 -4.58577,20.63906 -8.82539,41.36556 -13.57058,61.96209 -0.92216,3.0427 1.92403,5.2164 4.3159,6.3966 4.6119,2.38407 9.3928,4.716 14.22079,6.48531 6.48911,-9.09763 6.55479,-20.81126 8.7183,-31.36791 1.06145,-5.30209 3.10787,-10.35519 3.84597,-15.73411 5.34173,-23.71298 11.24338,-47.30507 16.86365,-70.95648 4.95895,-19.55575 9.79389,-39.15014 13.85403,-58.91861 4.01562,-19.16717 8.69775,-38.18313 13.66417,-57.12269 0.79967,-4.40563 2.59321,-9.22932 0.73211,-13.58645 -1.45291,-3.1871 -5.41044,-3.62048 -8.29048,-4.87127 -4.08826,-1.263 -8.261,-2.63784 -12.56364,-2.83647 z"
         style="opacity:1;vector-effect:none;fill:#aa4400;fill-opacity:1;stroke:none;stroke-width:0.48773664;stroke-linecap:round;stroke-linejoin:miter;stroke-miterlimit:4;stroke-dasharray:none;stroke-dashoffset:0;stroke-opacity:1" />
      <path
         transform="scale(0.26458333)"
         inkscape:connector-curvature="0"
         id="path50"
         d="m 383.53126,895.24781 c -15.61115,0.12387 -30.97995,4.05471 -45.50549,9.55837 -20.20622,7.80804 -36.60677,22.7276 -50.81718,38.67782 -11.87706,13.72314 -22.85514,28.46845 -30.7386,44.88329 -5.76076,13.25361 -8.66573,27.53881 -11.2451,41.69481 -2.45835,15.2681 -4.67114,31.207 -0.37011,46.3666 3.25997,12.3968 10.17019,24.3264 21.19842,31.3071 6.31865,4.0235 13.98863,4.8433 21.15694,6.4103 10.2312,2.037 20.73739,1.0935 31.07228,0.6231 9.27344,-0.9851 18.66798,-1.8476 27.65278,-4.46 2.76908,-0.7063 4.62135,-3.4771 7.68075,-3.3133 5.59974,-0.4344 10.55421,-3.5718 15.46937,-6.0265 8.8554,-5.0693 17.68893,-10.5434 24.9226,-17.8131 9.65486,-11.1061 16.974,-24.0145 23.85766,-36.9553 6.35435,-12.0161 11.40386,-24.7536 14.24051,-38.0744 4.87711,-22.13255 6.87588,-45.08227 4.37484,-67.66057 -1.34451,-9.45269 -3.00758,-19.57617 -9.23347,-27.1888 -6.26057,-6.91737 -15.10635,-10.68473 -23.54722,-14.2132 -5.77884,-2.25436 -11.8355,-4.27256 -18.1319,-3.81542 -0.67903,-0.003 -1.35805,-0.005 -2.03708,-8e-4 z m -20.19466,55.8932 c 7.06802,0.024 14.31724,2.10296 19.93157,6.46132 5.21949,4.44025 9.07169,10.33222 10.94427,16.93397 2.25187,5.77492 1.16787,12.09045 1.40111,18.13196 -0.22814,13.95164 -2.59047,28.30504 -9.50383,40.60004 -6.60234,11.8226 -18.30015,20.1326 -31.08264,24.1125 -12.42892,3.9384 -25.56215,5.4343 -38.57273,5.434 -5.98605,0.04 -12.24116,-1.7873 -16.28435,-6.4357 -5.64523,-5.9616 -8.15138,-14.4337 -7.18817,-22.5313 1.29986,-14.3359 5.48568,-28.3959 11.79196,-41.31757 9.84156,-19.30437 27.48724,-35.50426 48.99424,-40.26216 3.14411,-0.69758 6.34688,-1.12174 9.56857,-1.12706 z"
         style="opacity:1;vector-effect:none;fill:#aa4400;fill-opacity:1;stroke:none;stroke-width:0.48773664;stroke-linecap:round;stroke-linejoin:miter;stroke-miterlimit:4;stroke-dasharray:none;stroke-dashoffset:0;stroke-opacity:1" />
      <path
         transform="scale(0.26458333)"
         inkscape:connector-curvature="0"
         id="path54"
         d="m 102.62009,794.32844 c -4.271848,0.79845 -8.257835,2.75382 -12.08754,4.75327 -7.859668,5.05479 -14.862223,11.32512 -21.775175,17.5818 -4.620157,4.426 -9.459957,8.75221 -13.159742,14.00819 -1.154491,1.88261 -1.376927,4.22945 -2.989257,5.86084 -3.949047,4.88945 -5.866091,11.01743 -8.212513,16.75572 -4.933913,13.25978 -9.715578,26.94835 -9.932063,41.25385 -0.430907,15.96407 -0.501729,32.29051 4.109419,47.7336 3.177635,10.85898 9.522259,20.71365 18.068931,28.12585 9.961443,8.84662 22.171257,14.55516 34.139565,20.13391 6.662415,3.08136 13.910965,5.13867 21.307125,4.87655 8.56452,-0.0793 17.431,0.19245 25.52165,-3.08688 8.10512,-3.58174 16.01322,-7.65764 23.57545,-12.2795 1.37319,-1.06248 3.57828,-2.07372 3.56745,-4.06827 -0.72033,-1.91227 -2.98934,-2.56098 -4.66113,-3.42774 -5.61491,-2.34983 -11.84281,-0.86758 -17.5091,0.47875 -4.21574,0.8014 -8.66777,0.49801 -12.56609,-1.4016 -8.89957,-3.99198 -17.91701,-7.75452 -26.60743,-12.18604 -10.612333,-6.27046 -19.736615,-14.94927 -27.025475,-24.86098 -5.03803,-6.79417 -8.53119,-14.84481 -9.178622,-23.32749 -0.701293,-8.92593 -0.167358,-17.97477 1.518555,-26.75928 2.306987,-10.84915 7.360964,-21.52246 15.949412,-28.79742 4.524345,-4.16675 9.90663,-7.28244 14.452932,-11.40326 0.880948,-6.02217 1.316958,-12.16526 2.003928,-18.23498 0.96704,-10.5276 2.42153,-21.04449 2.47312,-31.63123 -0.21951,-0.21897 -0.67706,-0.0598 -0.9834,-0.0977 z"
         style="opacity:1;vector-effect:none;fill:#aa4400;fill-opacity:1;stroke:none;stroke-width:0.34488189;stroke-linecap:round;stroke-linejoin:miter;stroke-miterlimit:4;stroke-dasharray:none;stroke-dashoffset:0;stroke-opacity:1" />
      <path
         transform="scale(0.26458333)"
         inkscape:connector-curvature="0"
         id="path56"
         d="m 366.19713,871.11685 c -12.83482,0.0718 -25.32916,3.97072 -37.04247,8.94779 -14.27461,6.60199 -25.2796,18.24786 -36.44835,28.98073 -12.11912,12.37197 -25.01454,24.21556 -34.98654,38.47215 -7.27264,10.80884 -12.71698,22.73654 -17.72657,34.72394 -2.23759,5.1043 -2.25348,10.91594 -5.15635,15.75962 -4.80176,9.14172 -5.99907,19.59942 -7.3591,29.68522 -1.1303,10.9894 -1.0764,22.1359 0.1886,33.1099 2.44213,15.201 7.3653,30.9413 18.67759,41.9527 1.84018,1.6344 3.89858,4.2637 6.6291,3.8677 1.34144,-1.0435 -0.36841,-2.9034 -0.76788,-4.0169 -5.24461,-9.5973 -12.99462,-18.4558 -14.33341,-29.6798 -0.52785,-11.487 -0.55293,-23.0486 0.27,-34.5157 2.03367,-24.2465 9.26108,-48.14243 21.99119,-68.95227 12.00819,-19.73478 27.36904,-37.36776 44.64119,-52.66178 20.56567,-17.01458 46.51941,-27.49592 73.20746,-28.9716 10.5779,-0.67287 21.68783,0.5205 31.14465,5.54316 3.19698,1.32905 4.80668,5.36329 8.51222,5.49803 1.74814,0.0658 1.03476,-2.14936 0.27759,-2.90715 -4.6839,-5.97896 -11.10445,-10.34225 -17.37261,-14.50734 -9.8955,-6.4142 -21.47549,-10.66431 -33.38922,-10.33132 -0.31903,-0.002 -0.63806,0.003 -0.95709,0.003 z"
         style="opacity:1;vector-effect:none;fill:#ffffff;fill-opacity:1;stroke:none;stroke-width:0.48773664;stroke-linecap:round;stroke-linejoin:miter;stroke-miterlimit:4;stroke-dasharray:none;stroke-dashoffset:0;stroke-opacity:1" />
      <path
         transform="scale(0.26458333)"
         inkscape:connector-curvature="0"
         id="path58"
         d="m 106.04629,762.58145 c -3.97124,0.63 -7.395065,3.02483 -10.87916,4.88898 -11.605503,7.00878 -22.92186,14.55988 -33.505883,23.04507 -3.5965,2.84318 -6.854392,6.08918 -9.598655,9.76292 -3.881272,4.58035 -7.982577,9.02856 -10.919172,14.30969 -6.632365,11.30393 -12.352083,23.14016 -17.397419,35.23113 -6.076077,14.58411 -9.338879,30.27696 -9.973633,46.0459 -0.228396,9.47034 -0.419819,19.07659 1.829337,28.35093 3.735086,17.4175 13.48342,33.2733 26.706835,45.11555 7.267662,6.77106 15.647502,12.30049 24.498007,16.77131 0.808785,0.16442 2.01471,1.30213 2.711915,0.47559 0.379623,-1.28836 -1.361145,-2.04226 -2.058452,-2.84565 C 61.624232,979.22994 55.604975,974.89179 50.588775,969.4418 43.0084,961.49445 36.16264,952.61991 31.651164,942.55924 c -4.03288,-9.58962 -3.224539,-20.25921 -2.958558,-30.439 0.858405,-20.23688 2.634088,-40.8788 10.526539,-59.75022 4.789035,-12.01973 11.808097,-23.10492 20.608167,-32.58631 9.317413,-10.16701 19.35143,-19.90476 30.910875,-27.50988 3.515528,-2.17758 7.304955,-4.44893 11.543943,-4.44482 3.13511,-0.53365 4.02185,-4.06646 4.54684,-6.71883 0.95519,-5.48573 1.80971,-11.08705 1.45707,-16.66399 -0.21377,-1.12834 -0.99739,-2.04836 -2.23975,-1.86474 z"
         style="opacity:1;vector-effect:none;fill:#ffffff;fill-opacity:1;stroke:none;stroke-width:0.34488189;stroke-linecap:round;stroke-linejoin:miter;stroke-miterlimit:4;stroke-dasharray:none;stroke-dashoffset:0;stroke-opacity:1" />
      <path
         transform="scale(0.26458333)"
         inkscape:connector-curvature="0"
         id="path60"
         d="m 360.93053,958.72555 c -9.82452,0.18148 -19.2619,4.11281 -27.2634,9.635 -11.57543,8.39312 -20.35953,20.21512 -26.44856,33.06045 -4.03048,8.6988 -7.01391,18.0268 -7.69176,27.6311 -0.31125,5.5965 -0.009,11.3903 2.32724,16.5734 2.24166,5.3626 7.25112,9.5673 13.07397,10.3485 4.37412,0.6366 8.82351,0.2441 13.21864,0.056 8.7871,-0.8069 17.52552,-2.6116 25.80845,-5.6838 10.91066,-4.1655 20.60637,-11.9399 26.17365,-22.3032 5.41331,-10.0103 7.80549,-21.3573 8.91617,-32.59668 0.76336,-8.24467 0.0624,-17.01711 -4.28718,-24.26122 -3.76658,-6.4134 -10.45566,-10.99927 -17.82397,-12.095 -1.98383,-0.31285 -3.99757,-0.38942 -6.00325,-0.36465 z"
         style="opacity:1;vector-effect:none;fill:#916f6f;fill-opacity:1;stroke:none;stroke-width:0.24386832;stroke-linecap:round;stroke-linejoin:miter;stroke-miterlimit:4;stroke-dasharray:none;stroke-dashoffset:0;stroke-opacity:1" />
      <path
         transform="scale(0.26458333)"
         inkscape:connector-curvature="0"
         id="path62"
         d="m 94.285834,857.52665 c -2.647783,0.41651 -4.561126,2.59714 -6.326672,4.4384 -4.994472,5.779 -8.885918,12.51567 -11.542006,19.67116 -1.741694,5.21558 -2.742428,10.67424 -3.257863,16.14132 -0.259877,5.91849 -0.424168,11.94683 1.050647,17.73567 2.080173,9.35118 7.200769,17.90731 14.190362,24.42261 6.048313,5.98061 13.264338,10.61472 20.542958,14.94258 7.81925,4.4509 15.94691,8.5975 24.68981,10.8901 1.98578,0.42328 4.09411,0.75611 6.10406,0.34082 1.5681,-0.42551 1.73298,-2.75765 0.37875,-3.5483 -2.51326,-2.11632 -6.03175,-2.26179 -8.68802,-4.15609 -4.56262,-3.01205 -8.24457,-7.15444 -11.77396,-11.28101 -7.0251,-8.57715 -12.7886,-18.1939 -17.13205,-28.38388 -3.254109,-7.99725 -3.279183,-16.77469 -3.745441,-25.27344 -0.471848,-10.09807 -0.442256,-20.24264 -1.665643,-30.28943 -0.364402,-1.83532 -0.466482,-4.00994 -1.889603,-5.38638 -0.269462,-0.19334 -0.606188,-0.2776 -0.935329,-0.26413 z"
         style="opacity:1;vector-effect:none;fill:#916f6f;fill-opacity:1;stroke:none;stroke-width:0.24386832;stroke-linecap:round;stroke-linejoin:miter;stroke-miterlimit:4;stroke-dasharray:none;stroke-dashoffset:0;stroke-opacity:1" />
      <path
         transform="scale(0.26458333)"
         inkscape:connector-curvature="0"
         id="path64"
         d="m 606.42747,165.00056 c -3.66464,1.6664 -6.33886,4.97795 -9.36018,7.56549 -15.97885,15.37583 -30.50711,32.16548 -44.71938,49.15894 -17.75227,20.28319 -36.34244,39.88311 -52.79858,61.26093 -6.03073,7.6763 -13.90425,13.95602 -18.72638,22.54888 -0.55687,1.40133 -2.04008,3.35986 -0.92616,4.77896 1.69378,0.80517 3.40394,-0.95336 5.07304,-1.20859 6.76358,-2.85912 14.154,-4.59982 20.20534,-8.90657 6.85525,-5.35417 9.39562,-14.16238 15.13098,-20.48931 14.10064,-16.15816 28.79754,-31.79739 42.81237,-48.03104 8.91209,-11.26893 17.00207,-23.15287 25.38611,-34.80866 4.99388,-8.43928 10.09591,-16.81938 15.98921,-24.67803 1.17298,-1.99898 3.77204,-4.36111 2.60621,-6.88717 -0.1611,-0.19655 -0.41462,-0.32857 -0.67258,-0.30383 z"
         style="opacity:1;vector-effect:none;fill:#c8b7b7;fill-opacity:1;stroke:none;stroke-width:0.48773664;stroke-linecap:round;stroke-linejoin:miter;stroke-miterlimit:4;stroke-dasharray:none;stroke-dashoffset:0;stroke-opacity:1" />
      <path
         transform="scale(0.26458333)"
         inkscape:connector-curvature="0"
         id="path66"
         d="m 620.59654,165.35135 c -2.43322,-0.0749 -2.66841,2.78702 -3.21858,4.48916 -2.14776,4.36815 -6.358,7.26636 -9.11816,11.22335 -8.85038,11.25589 -16.14392,23.62572 -24.76923,35.04941 -7.05789,9.76188 -14.561,19.21736 -22.67425,28.12122 0.82204,1.15502 2.82475,1.3153 4.07497,2.04726 6.60001,2.83638 13.56685,4.77583 20.17728,7.47252 7.4178,3.95051 13.25758,10.25306 18.98052,16.26646 6.60031,7.50469 13.22799,15.34207 17.17722,24.62136 1.33776,4.04688 1.53999,8.40776 3.36014,12.32258 1.29418,2.84697 2.32731,6.24363 4.95388,8.13656 1.91151,-0.7085 2.7419,-3.07274 3.97063,-4.58552 4.29692,-7.63909 9.76766,-14.50731 15.70694,-20.9339 9.08291,-9.86348 18.26031,-19.78774 28.90399,-27.99524 1.67169,-1.1022 3.75466,-1.3024 5.39956,-2.56429 10.87468,-6.28953 20.37421,-14.89361 31.56154,-20.57101 1.16079,-0.26138 2.73644,-0.481 2.77112,-2.03155 0.24533,-4.44748 -2.46902,-8.37824 -4.23091,-12.27769 -3.67723,-5.98332 -9.43919,-10.31102 -14.7588,-14.75302 -19.16659,-14.84479 -40.16239,-27.23257 -61.89625,-37.91607 -5.21767,-2.30641 -10.33035,-5.3783 -16.06639,-6.12505 z"
         style="opacity:1;vector-effect:none;fill:#c8b7b7;fill-opacity:1;stroke:none;stroke-width:0.48773664;stroke-linecap:round;stroke-linejoin:miter;stroke-miterlimit:4;stroke-dasharray:none;stroke-dashoffset:0;stroke-opacity:1" />
      <path
         transform="scale(0.26458333)"
         inkscape:connector-curvature="0"
         id="path68"
         d="m 488.64907,79.9419 c -10.89879,0.572314 -21.77183,1.690706 -32.63809,2.712417 -18.17885,2.020819 -35.96723,6.715846 -53.31365,12.403297 -16.5956,5.403606 -32.623,15.070566 -41.96489,30.211796 -6.11639,9.51168 -8.79822,20.62407 -11.164,31.53762 -4.87353,19.71169 -10.33332,39.27727 -15.87326,58.81098 -2.19473,7.45702 -5.14647,14.64201 -8.28963,21.74088 -5.26516,12.4488 -8.26685,25.81881 -14.6546,37.77417 -2.84835,4.73725 -6.28756,9.65065 -6.54074,15.35472 0.0548,2.21885 1.18352,5.52284 3.98714,4.99256 4.38218,-0.91171 7.11814,-5.00512 9.89586,-8.16107 8.39618,-10.80884 14.68364,-23.13327 19.47946,-35.90743 5.08322,-11.9639 11.62528,-23.37336 15.10957,-35.96439 3.30572,-7.81253 7.21801,-15.41988 11.87788,-22.50933 1.78345,-2.77975 4.36944,-5.27221 7.86675,-5.47604 7.67738,-1.17957 15.50582,0.14823 23.21598,0.6024 6.30857,0.46271 12.4399,1.94726 18.79725,2.08318 28.09815,1.6994 56.26502,2.25235 84.31839,4.68183 2.44353,0.13748 6.27146,0.32177 7.07037,-2.69239 1.77195,-6.75367 3.83474,-13.41984 5.8933,-20.09457 3.23444,-12.16352 3.1815,-24.94458 2.32771,-37.4165 -1.4213,-15.59936 -4.17955,-31.33073 -10.48389,-45.758288 -1.76686,-4.238824 -5.29048,-8.10845 -10.08476,-8.607813 -1.59522,-0.266115 -3.21743,-0.328622 -4.83215,-0.318029 z"
         style="opacity:1;vector-effect:none;fill:#c8b7b7;fill-opacity:1;stroke:none;stroke-width:0.48773664;stroke-linecap:round;stroke-linejoin:miter;stroke-miterlimit:4;stroke-dasharray:none;stroke-dashoffset:0;stroke-opacity:1" />
      <path
         transform="scale(0.26458333)"
         inkscape:connector-curvature="0"
         id="path70"
         d="m 377.7906,40.850835 c -4.25747,0.07278 -6.77101,4.048065 -9.731,6.489302 -10.85295,9.333753 -22.8159,17.270014 -33.83074,26.407493 -9.51791,7.880892 -18.77495,16.099597 -27.54816,24.804342 -3.63622,3.636028 -7.28297,8.066328 -7.30806,13.483918 -0.49685,7.94424 2.1139,15.60109 3.78938,23.26176 5.57437,22.90534 11.55908,45.72719 16.8571,68.68795 0.91861,4.15785 1.14076,8.40591 1.80664,12.59912 0.0658,1.16736 1.43979,1.81167 2.29248,0.93945 2.44617,-2.54708 3.10224,-6.23284 4.13655,-9.49572 1.83571,-7.0251 3.13716,-14.2633 6.29065,-20.86159 2.61498,-7.04353 2.73235,-14.83898 6.1685,-21.58116 2.59143,-6.71558 1.93501,-14.33649 5.31202,-20.78125 0.92389,-2.08256 3.66725,-2.95258 3.76757,-5.44873 0.52406,-3.87765 -0.57965,-8.0007 1.39405,-11.58936 2.76985,-5.97623 6.66823,-11.33463 10.61963,-16.57959 5.04247,-6.7592 12.75411,-10.65536 20.11509,-14.349815 9.78711,-5.060488 19.82358,-9.66542 29.37632,-15.16442 1.02761,-0.428808 1.63723,-1.567655 1.06669,-2.616133 -2.42984,-6.111102 -6.28247,-11.534162 -9.89232,-16.991157 -5.31842,-7.608354 -10.98868,-15.688795 -19.53297,-19.929253 -1.61164,-0.742596 -3.35653,-1.311921 -5.14942,-1.285157 z"
         style="opacity:1;vector-effect:none;fill:#c8b7b7;fill-opacity:1;stroke:none;stroke-width:0.34488189;stroke-linecap:round;stroke-linejoin:miter;stroke-miterlimit:4;stroke-dasharray:none;stroke-dashoffset:0;stroke-opacity:1" />
      <path
         transform="scale(0.26458333)"
         inkscape:connector-curvature="0"
         id="path72"
         d="m 345.441,249.7649 c -3.02341,0.97887 -4.55914,4.1729 -6.00147,6.77343 -1.50254,3.27444 -3.1376,6.79508 -2.94971,10.4751 0.4843,1.12544 1.37466,2.03209 1.68249,3.28191 4.08471,11.09389 6.00513,22.8506 10.05872,33.95198 1.34185,3.48804 3.39221,7.5517 7.43702,8.32324 1.45244,0.20949 3.90032,0.40509 4.20996,-1.53955 0.57414,-4.14121 -0.92824,-8.2239 -1.60879,-12.26763 -2.30053,-10.08962 -4.67069,-20.20216 -8.06114,-29.98969 -1.11404,-2.61165 -2.63199,-5.09349 -2.77011,-7.98704 -0.56909,-3.46102 0.006,-7.12293 -1.10781,-10.47634 -0.16918,-0.3284 -0.506,-0.58116 -0.88916,-0.54541 z"
         style="opacity:1;vector-effect:none;fill:#c8b7b7;fill-opacity:1;stroke:none;stroke-width:0.34488189;stroke-linecap:round;stroke-linejoin:miter;stroke-miterlimit:4;stroke-dasharray:none;stroke-dashoffset:0;stroke-opacity:1" />
      <path
         transform="scale(0.26458333)"
         inkscape:connector-curvature="0"
         id="path74"
         d="m 410.92146,196.99585 c 0.7402,12.81627 2.26931,25.58703 2.65492,38.42822 0.97709,19.99322 0.67292,40.02028 1.06759,60.03089 0.26009,5.65127 -0.11659,11.42039 1.16861,16.96863 0.33915,1.95425 2.0265,3.54617 4.07226,3.3999 2.83912,0.25003 5.63876,-1.27781 6.91065,-3.83936 2.51743,-4.1373 1.74879,-9.14409 1.83725,-13.74022 -0.49947,-31.80332 -1.24886,-63.60207 -2.09136,-95.39765 -0.1471,-1.7371 0.24433,-4.20882 -1.7996,-4.99543 -4.14921,-1.5557 -8.7258,-0.86216 -13.05762,-1.05466 -0.26755,0.0503 -0.61758,-0.1452 -0.7627,0.19968 z"
         style="opacity:1;vector-effect:none;fill:#c8b7b7;fill-opacity:1;stroke:none;stroke-width:0.34488189;stroke-linecap:round;stroke-linejoin:miter;stroke-miterlimit:4;stroke-dasharray:none;stroke-dashoffset:0;stroke-opacity:1" />
      <path
         transform="scale(0.26458333)"
         inkscape:connector-curvature="0"
         id="path76"
         d="m 242.58353,187.85898 c -1.57237,0.15127 -2.90619,1.53512 -2.98169,3.12402 -0.3202,3.57786 -0.0436,7.18377 0.21216,10.7583 0.88279,9.40114 2.47375,18.71829 3.42336,28.11087 0.77895,6.96533 1.27929,13.95743 1.45366,20.96488 0.15556,2.80931 0.34583,6.00617 2.48748,8.09735 2.30345,2.17527 5.25891,3.48471 8.08496,4.83496 1.43761,0.57659 3.06445,1.5069 4.64307,0.92846 1.03518,-0.59828 0.71499,-2.02704 0.59228,-2.99755 -0.84478,-3.98384 -1.8883,-7.92546 -2.70789,-11.91646 -4.17701,-19.2598 -7.9569,-38.60362 -12.07506,-57.87554 -0.49486,-1.40356 -0.92606,-3.12982 -2.34595,-3.87915 -0.2465,-0.10817 -0.51737,-0.15978 -0.78638,-0.15014 z"
         style="opacity:1;vector-effect:none;fill:#c8b7b7;fill-opacity:1;stroke:none;stroke-width:0.17244095;stroke-linecap:round;stroke-linejoin:miter;stroke-miterlimit:4;stroke-dasharray:none;stroke-dashoffset:0;stroke-opacity:1" />
      <path
         transform="scale(0.26458333)"
         inkscape:connector-curvature="0"
         id="path78"
         d="m 126.96881,56.609745 c -1.00251,-0.131389 -2.02289,0.45758 -2.15205,1.515031 -0.9259,3.015626 -3.3005,5.268604 -5.24928,7.643626 -3.69188,3.896865 -7.00699,8.150258 -9.70872,12.796525 -7.25058,12.323713 -12.300525,25.848923 -15.898369,39.656453 -2.553661,9.98355 -3.838772,20.22877 -5.621274,30.36472 -0.09976,1.51929 -0.979973,3.12935 -0.06911,4.54163 3.347291,8.10028 6.390865,16.33436 10.07859,24.28886 2.181363,4.69006 5.230213,9.12333 9.590483,12.03083 4.56052,3.13927 9.56275,5.5737 14.52719,7.99696 2.64896,1.32771 5.61672,2.05079 8.58466,1.68346 4.32309,-0.55031 8.50234,-1.89683 12.702,-3.01919 7.52922,-2.25849 14.99333,-5.27626 21.20027,-10.19908 6.3799,-4.19569 14.05238,-5.73504 21.48667,-6.81832 15.70112,-2.09471 31.61027,-1.03096 47.3908,-0.45794 4.82999,0.063 9.68824,0.36711 14.50344,-0.10413 1.77843,-0.22017 3.7487,-1.04354 4.26217,-2.93871 1.76287,-5.98022 3.11126,-12.09676 3.9975,-18.26911 0.62985,-4.45474 -0.57492,-8.87111 -0.82234,-13.30452 -1.33703,-14.41606 -1.99939,-28.92156 -4.3507,-43.22401 -1.0411,-5.598606 -2.33525,-11.684913 -6.62128,-15.778315 -2.60756,-2.514139 -5.82229,-4.591457 -9.50243,-4.975735 -6.98636,-0.889256 -14.05561,-0.566239 -21.08061,-0.617206 -12.33942,0.107162 -24.72339,0.260414 -36.98231,-1.301928 -11.49066,-1.455138 -23.21643,-3.919865 -33.26286,-9.975202 -3.87095,-2.201497 -6.90534,-5.463002 -10.15668,-8.440796 -1.90987,-1.657324 -4.19843,-3.226813 -6.84576,-3.093903 z"
         style="opacity:1;vector-effect:none;fill:#c8b7b7;fill-opacity:1;stroke:none;stroke-width:0.24386832;stroke-linecap:round;stroke-linejoin:miter;stroke-miterlimit:4;stroke-dasharray:none;stroke-dashoffset:0;stroke-opacity:1" />
      <path
         transform="scale(0.26458333)"
         inkscape:connector-curvature="0"
         id="path80"
         d="m 517.40502,49.716985 c -4.52911,0.686429 -8.83058,2.392463 -13.1677,3.807482 -13.51324,4.797145 -26.88986,10.017714 -39.94237,15.962704 -2.30754,1.193 -4.86665,2.092914 -6.8338,3.827431 -0.49332,0.804647 0.88793,0.957359 1.39971,0.981595 11.78347,1.015384 23.63953,0.666156 35.4374,1.377011 9.73405,0.478814 19.41414,1.63662 29.00728,3.368269 3.47517,0.554533 7.04755,0.959279 10.55525,0.552841 1.10145,-0.407905 0.35544,-1.796507 0.17989,-2.561537 -2.19876,-6.275949 -5.34244,-12.185361 -8.68588,-17.917974 -2.01914,-3.168687 -3.91435,-6.57124 -6.82421,-9.022862 -0.31561,-0.261 -0.70974,-0.428184 -1.12557,-0.37496 z"
         style="opacity:1;vector-effect:none;fill:#c8b7b7;fill-opacity:1;stroke:none;stroke-width:0.24386832;stroke-linecap:round;stroke-linejoin:miter;stroke-miterlimit:4;stroke-dasharray:none;stroke-dashoffset:0;stroke-opacity:1" />
      <path
         transform="scale(0.26458333)"
         inkscape:connector-curvature="0"
         id="path82"
         d="m 719.10499,244.38079 c -4.85035,0.59255 -8.33773,4.49935 -12.40009,6.82396 -1.70011,1.09494 -3.51972,2.02053 -5.52618,2.28444 -1.40344,0.57366 -1.66607,2.14444 -2.2793,3.32959 -1.63173,1.69838 -4.89318,0.36666 -6.08106,2.72559 -1.62963,3.10058 -4.92879,4.81619 -7.59812,6.9077 -8.93897,6.07564 -18.22997,11.84041 -25.88479,19.56984 -9.78808,9.76086 -17.17373,21.66021 -23.36431,33.94423 -2.06791,4.27399 -4.18431,9.28861 -2.60346,14.06358 1.8593,4.21137 6.03416,6.77989 9.88528,8.96759 5.5333,2.99222 11.91107,3.92934 18.1352,3.67873 12.41054,-0.0181 24.0939,-5.47318 34.10212,-12.44015 11.79134,-7.93766 21.07719,-19.57985 25.81652,-33.01176 3.85497,-10.77246 5.54406,-22.27622 5.27475,-33.70271 0.08,-5.42283 0.0388,-10.93831 -1.66382,-16.14941 -0.8849,-2.58307 -1.92811,-5.83717 -4.72974,-6.88282 -0.35279,-0.0914 -0.71942,-0.12018 -1.083,-0.1084 z"
         style="opacity:1;vector-effect:none;fill:#e3dedb;fill-opacity:1;stroke:none;stroke-width:0.34488189;stroke-linecap:round;stroke-linejoin:miter;stroke-miterlimit:4;stroke-dasharray:none;stroke-dashoffset:0;stroke-opacity:1" />
      <path
         transform="scale(0.26458333)"
         inkscape:connector-curvature="0"
         id="path84"
         d="m 429.65316,10.223688 c -7.14186,0.02483 -14.08009,2.64112 -20.04736,6.434571 -2.11035,1.396881 -2.5822,4.125366 -4.50904,5.718931 -4.68714,4.76443 -10.44819,8.265242 -15.54907,12.534486 0.44189,1.261865 1.83388,2.14718 2.66146,3.224505 6.28172,6.306548 12.38514,12.861033 17.32168,20.293388 4.13584,5.894015 7.31548,12.354972 10.40163,18.836112 0.89448,2.14213 3.20424,3.857863 5.5842,3.146218 2.84672,-0.47005 5.57869,-2.145453 7.03542,-4.663798 2.9176,-2.826845 7.12345,-3.66043 10.84275,-4.939112 6.41647,-1.994415 13.192,-3.212965 19.14065,-6.455905 2.40228,-1.240723 3.73277,-3.93042 3.42969,-6.596193 -0.76397,-7.58905 -2.43097,-15.091792 -4.64943,-22.385067 -1.89615,-5.799638 -4.26329,-11.746137 -8.89598,-15.932804 -5.98867,-5.830103 -14.348,-9.4774429 -22.7666,-9.215332 z"
         style="opacity:1;vector-effect:none;fill:#e3dedb;fill-opacity:1;stroke:none;stroke-width:0.34488189;stroke-linecap:round;stroke-linejoin:miter;stroke-miterlimit:4;stroke-dasharray:none;stroke-dashoffset:0;stroke-opacity:1" />
      <path
         transform="scale(0.26458333)"
         inkscape:connector-curvature="0"
         id="path86"
         d="m 512.77718,83.617243 c -1.7055,-0.230316 -3.46165,1.251097 -3.01611,3.041504 0.54677,5.849812 2.71791,11.396186 4.24665,17.033653 2.72197,9.05072 5.47357,18.24525 5.54382,27.77802 0.47171,16.10864 -0.49393,32.26682 -2.62926,48.23243 -0.38755,3.80039 -1.66736,7.61429 -1.23445,11.45931 0.49038,1.8857 2.91882,1.62489 4.43359,1.58057 8.21204,-0.90537 16.05451,-3.86464 23.58522,-7.14099 10.99501,-4.83822 20.8077,-12.6232 27.25658,-22.83362 4.25852,-6.39202 7.20534,-13.77993 7.48633,-21.52246 0.6197,-11.62119 -1.89252,-23.63479 -8.14307,-33.54004 -2.84823,-4.49785 -6.93778,-8.241194 -11.91943,-10.22412 -12.80863,-5.734484 -26.05267,-10.878168 -39.93702,-13.264648 -1.8813,-0.261557 -3.76846,-0.589782 -5.67285,-0.599609 z"
         style="opacity:1;vector-effect:none;fill:#e3dedb;fill-opacity:1;stroke:none;stroke-width:0.34488189;stroke-linecap:round;stroke-linejoin:miter;stroke-miterlimit:4;stroke-dasharray:none;stroke-dashoffset:0;stroke-opacity:1" />
      <path
         transform="scale(0.26458333)"
         inkscape:connector-curvature="0"
         id="path88"
         d="m 541.93877,46.312291 c -3.91094,-0.0081 -7.8784,0.39828 -11.58923,1.679379 -1.06028,0.270767 -1.59247,1.510821 -1.01405,2.450705 1.51268,2.975099 3.46919,5.716681 4.85037,8.76334 3.1193,6.114971 5.57602,12.53337 8.40406,18.78456 1.54458,3.430168 3.94906,6.590507 7.37775,8.298948 5.11939,2.681277 10.76495,4.245427 15.69877,7.308774 6.70302,3.968066 11.97575,10.170973 15.17775,17.261903 1.36021,2.6046 2.44607,5.35967 3.86004,7.92807 0.60772,0.42707 1.00121,-0.76977 1.42813,-1.0399 1.77806,-2.29753 3.82749,-4.45235 5.16129,-7.05212 2.57825,-6.0764 2.22677,-12.839869 2.31595,-19.299381 -0.0876,-5.744986 -0.37907,-11.543967 -1.64164,-17.164609 -0.88209,-2.975921 -3.06651,-5.340228 -4.94112,-7.736742 -4.3079,-4.999934 -8.84849,-9.867007 -14.04857,-13.95362 -3.35542,-2.327031 -7.47274,-3.156103 -11.36998,-4.125219 -6.45799,-1.410522 -13.04889,-2.266994 -19.66952,-2.104088 z"
         style="opacity:1;vector-effect:none;fill:#c83737;fill-opacity:1;stroke:none;stroke-width:0.24386832;stroke-linecap:round;stroke-linejoin:miter;stroke-miterlimit:4;stroke-dasharray:none;stroke-dashoffset:0;stroke-opacity:1" />
      <path
         transform="scale(0.26458333)"
         inkscape:connector-curvature="0"
         id="path90"
         d="M 81.464027,36.194433 C 74.062815,35.9684 66.791192,38.451585 60.435707,42.104589 52.037398,47.117214 45.279933,54.771749 41.362531,63.736294 36.54016,74.213384 34.1537,85.692566 33.290476,97.149641 c -0.530114,10.754259 -0.523945,21.601839 1.418428,32.229539 2.231499,12.74647 6.254965,25.54983 14.048605,36.0453 7.705925,10.07461 19.419291,15.81218 30.665218,21.01785 6.551845,2.94629 13.214615,5.70747 19.817668,8.49576 0.962725,-0.34536 -0.299028,-1.55525 -0.36914,-2.15625 -4.58132,-10.08534 -9.893563,-19.83084 -14.123205,-30.07182 -2.939473,-6.82797 -2.19434,-14.40588 -1.734805,-21.60971 1.660302,-18.45279 7.034925,-36.43848 14.369727,-53.408319 4.838518,-10.89175 10.650508,-21.552427 18.894548,-30.271848 1.52395,-1.878706 4.00783,-4.236892 2.74412,-6.892214 -1.85713,-2.90832 -5.29283,-4.2385 -8.12255,-5.993652 -7.31386,-4.123155 -15.224073,-7.779988 -23.724458,-8.290063 -1.90265,-0.06153 -3.80716,-0.04733 -5.710605,-0.04978 z"
         style="opacity:1;vector-effect:none;fill:#c83737;fill-opacity:1;stroke:none;stroke-width:0.34488189;stroke-linecap:round;stroke-linejoin:miter;stroke-miterlimit:4;stroke-dasharray:none;stroke-dashoffset:0;stroke-opacity:1" />
      <path
         transform="scale(0.26458333)"
         inkscape:connector-curvature="0"
         id="path92"
         d="m 297.75647,545.60478 c -2.03649,-7.7e-4 -4.16474,0.50057 -5.76208,1.82007 -1.34492,1.0362 -1.90323,2.71006 -2.4041,4.26307 -0.47448,1.58443 -0.84511,3.2519 -0.58357,4.91064 0.23094,1.72054 0.43265,3.4528 0.80786,5.14819 0.66977,1.20641 1.98993,1.8473 3.20788,2.37268 2.364,0.93821 4.8924,1.39802 7.40944,1.68657 0.97023,0.0952 1.95138,-0.0981 2.81012,-0.56052 2.94234,-1.41018 5.36488,-3.69727 7.46667,-6.15432 0.79903,-0.96972 1.55209,-2.17851 1.33806,-3.49114 -0.12869,-1.23931 -0.85368,-2.31072 -1.4638,-3.36248 -0.9414,-1.56218 -2.17468,-2.95994 -3.71121,-3.95807 -2.23087,-1.48267 -4.84697,-2.38454 -7.51076,-2.63552 -0.53399,-0.0352 -1.06948,-0.0443 -1.60451,-0.0392 z"
         style="opacity:1;vector-effect:none;fill:#ffcc00;fill-opacity:1;stroke:none;stroke-width:0.08622047;stroke-linecap:round;stroke-linejoin:miter;stroke-miterlimit:4;stroke-dasharray:none;stroke-dashoffset:0;stroke-opacity:1" />
      <path
         inkscape:connector-curvature="0"
         id="path21"
         d="m 72.583597,296.21602 c -7.608514,-1.44818 -12.377362,-5.65536 -13.859983,-12.22751 -1.285067,-5.69654 -0.888668,-13.29953 1.042711,-19.99886 0.225814,-0.78358 -0.586714,-1.18263 -4.07665,-2.0019 -2.397333,-0.56277 -5.491164,-1.43384 -6.8752,-1.93568 -2.254061,-0.81733 -2.611519,-0.81738 -3.428483,-3.9e-4 -0.501636,0.50165 -2.614957,1.74166 -4.696261,2.75558 -3.184701,1.55152 -4.538326,1.85543 -8.544856,1.91864 -6.414111,0.10108 -11.278918,-0.54233 -15.237365,-2.01545 -4.666077,-1.73645 -11.8918122,-9.15311 -13.6785833,-14.04 -2.68532686,-7.34453 -1.8665079,-17.12246 2.265396,-27.05236 3.962203,-9.52209 9.3900573,-15.51966 18.1518783,-20.05708 3.04369,-1.57623 5.731914,-3.17553 5.97384,-3.554 0.241902,-0.37848 0.443959,-1.97072 0.448983,-3.53833 0.0045,-1.56761 0.52716,-3.99221 1.16028,-5.38802 0.633098,-1.39579 1.292806,-4.43451 1.466014,-6.75267 0.173095,-2.31818 0.603185,-5.50118 0.955507,-7.07331 0.352322,-1.57212 0.508605,-3.07192 0.347321,-3.3329 -0.161329,-0.26097 -0.02262,-1.3884 0.308472,-2.50539 0.33094,-1.117 0.744308,-2.99201 0.918603,-4.16669 0.174226,-1.17467 0.841967,-4.40748 1.483775,-7.18401 0.641787,-2.77654 1.312334,-6.79933 1.490089,-8.93958 0.177847,-2.14022 0.863756,-5.91185 1.524414,-8.38133 0.660657,-2.46951 1.561725,-5.83702 2.002359,-7.48336 0.440612,-1.64633 0.820561,-4.0009 0.844296,-5.23238 0.03801,-1.97143 1.307694,-7.48305 2.311443,-10.03364 0.194364,-0.4939 0.315891,-1.08423 0.27005,-1.31183 -0.126484,-0.62884 2.235008,-10.03985 3.201241,-12.75686 0.468376,-1.31706 1.252371,-4.592563 1.742196,-7.278889 1.268775,-6.958189 6.09763,-20.945511 8.280281,-23.984794 1.008046,-1.403676 2.483427,-2.978434 3.278668,-3.499484 1.380237,-0.904393 1.429517,-1.155895 1.085589,-5.542148 -0.19821,-2.527113 -0.618209,-6.345843 -0.933446,-8.486091 -0.315259,-2.140222 -0.578589,-4.050153 -0.585218,-4.244246 -0.03167,-0.929351 -3.487358,-1.742422 -7.405551,-1.742422 -3.860767,0 -4.906216,0.272359 -9.400852,2.449217 -7.304883,3.537923 -9.711969,4.271381 -11.627757,3.542995 -0.87405,-0.332318 -2.286643,-0.604197 -3.13904,-0.604197 -2.912114,0 -13.764247,-4.765484 -16.308245,-7.161413 C 7.6113773,41.980486 4.9161172,28.882054 7.7298286,20.113261 10.468646,11.577773 15.140628,7.2786559 21.696857,7.260894 c 3.312722,-0.00905 10.463156,3.232759 13.170679,5.971079 1.72534,1.744957 5.558683,3.915954 8.842647,5.007969 3.548607,1.18001 5.01564,1.316721 12.310025,1.147247 l 8.28132,-0.192329 2.045691,2.045714 c 1.303665,1.303643 2.068723,2.6646 2.109157,3.751887 0.03485,0.938422 0.16676,2.514403 0.293108,3.502221 0.126258,0.987797 0.398231,5.878242 0.604272,10.867655 0.358363,8.678807 0.322387,9.099621 -0.830834,9.716813 -1.441124,0.771257 -1.415172,2.112981 0.196174,10.141555 l 1.120321,5.582022 3.317747,-0.353724 c 1.824784,-0.194599 4.907913,-0.471093 6.851419,-0.614567 1.943508,-0.143462 3.738674,-0.475694 3.989242,-0.738271 0.864321,-0.905707 0.79531,-2.881396 -0.204772,-5.865436 -0.5518,-1.646348 -0.974538,-3.532142 -0.93942,-4.190688 0.03508,-0.658531 -0.799949,-4.160732 -1.855737,-7.782673 -5.595338,-19.195134 -5.74945,-17.494867 2.174594,-23.992901 3.181217,-2.608735 7.316943,-5.820746 9.190489,-7.137808 4.561835,-3.206875 8.422891,-6.1050972 11.828331,-8.8786901 1.54866,-1.261355 4.25914,-2.9662851 6.02325,-3.7887233 2.99253,-1.39514651 3.38823,-1.44205229 5.90428,-0.69998369 4.57587,1.34957649 8.36833,6.23805239 8.51255,10.97271209 0.0991,3.253509 0.52614,3.360331 6.00651,1.502284 7.60715,-2.579072 11.73643,-3.217147 15.87213,-2.452632 7.05191,1.303621 11.92537,5.67193 12.63131,11.322002 0.48142,3.853141 -0.4307,8.472811 -2.14948,10.886616 -0.65635,0.921772 -1.19337,2.450166 -1.19337,3.39642 0,0.946252 -0.90838,3.615968 -2.01863,5.932658 -2.54624,5.313136 -5.70912,7.729319 -13.14675,10.043112 -4.37244,1.36024 -5.97814,1.586663 -9.27935,1.308446 -2.19558,-0.185098 -6.7271,-0.439279 -10.07004,-0.565018 l -6.07803,-0.228582 0.19957,6.217736 c 0.10974,3.419748 -0.0136,6.217711 -0.27462,6.217711 -0.2608,0 -0.35199,0.639347 -0.20251,1.420741 0.23389,1.22359 0.71867,1.473293 3.49326,1.799397 1.77193,0.208167 5.27452,1.353036 7.78351,2.543956 l 4.56184,2.165313 2.9625,-3.216356 c 1.62938,-1.76901 3.69197,-4.14156 4.58356,-5.272389 0.89158,-1.130792 3.30406,-3.824782 5.36101,-5.98666 2.05699,-2.161878 3.7497,-4.200077 3.76158,-4.529343 0.0111,-0.329267 2.63932,-3.337797 5.83874,-6.685637 7.61253,-7.9657 8.20979,-8.115466 16.24794,-4.074184 7.35707,3.69885 15.27692,8.851789 19.44601,12.65225 1.84776,1.684386 4.56362,8.458966 5.09838,12.717608 0.56908,4.532356 -0.0238,10.735605 -1.08883,11.393891 -0.31099,0.192094 -0.76453,1.14276 -1.00789,2.112416 -0.62146,2.476113 -6.55884,8.263054 -10.12914,9.872527 -3.43287,1.547511 -9.88817,1.883525 -12.29722,0.640091 -2.90078,-1.497267 -4.76482,-3.742416 -4.76482,-5.738978 0,-6.758692 -7.18164,-17.229525 -12.87135,-18.766419 -5.1738,-1.397574 -6.25754,-1.026448 -9.92516,3.398763 -4.6182,5.57215 -4.54686,5.35246 -2.44311,7.523777 1.50216,1.550387 1.96185,2.708391 2.53419,6.383957 1.20045,7.709197 -0.11919,17.723912 -2.53215,19.215162 -0.42525,0.26282 -0.22106,0.98545 0.59763,2.1163 1.91079,2.63894 5.47412,13.16789 6.15285,18.18057 0.3344,2.46951 0.84681,6.24111 1.13868,8.38135 0.47832,3.50735 0.3567,14.89033 -0.29742,27.83807 -0.2204,4.36398 -0.88432,9.18742 -2.76005,20.05535 -0.66403,3.8472 -1.83567,7.97464 -2.84456,10.02058 -0.28606,0.58013 -1.08488,2.81721 -1.77514,4.97129 -1.39976,4.36822 -6.04397,14.22106 -8.07659,17.13474 -4.81564,6.90305 -12.85099,16.39064 -17.30037,20.4271 l -1.61116,1.46162 1.45187,2.29993 c 3.27231,5.18369 4.76842,15.69415 3.28989,23.11221 -0.31676,1.58914 -0.85251,4.46814 -1.19056,6.39777 -1.29589,7.39686 -8.04805,18.80218 -13.87208,23.43198 -2.38385,1.89502 -8.806581,4.48739 -13.396859,5.40733 -3.76578,0.75469 -12.731155,0.80768 -16.463357,0.0972 z m 14.667352,-1.67937 c 2.634146,-0.34206 4.879155,-0.87134 4.988894,-1.17613 0.109739,-0.30478 0.799112,-0.55418 1.531903,-0.55418 1.546022,0 6.977764,-3.14293 9.871514,-5.71189 2.63022,-2.33502 7.97536,-11.54433 9.54116,-16.4388 3.53121,-11.03815 3.33741,-25.50723 -0.39165,-29.23626 -1.5793,-1.57932 -5.08277,-3.3744 -8.25067,-4.22744 -3.69131,-0.99396 -11.941335,0.56444 -17.368624,3.28082 -6.647327,3.32707 -14.77612,12.16965 -19.136827,20.81724 -1.850172,3.66903 -3.834384,13.28985 -3.834384,18.59173 0,6.79224 3.602708,12.84725 8.381332,14.08641 5.122731,1.32836 7.967419,1.43862 14.667352,0.5685 z m -6.053644,-13.65509 c -2.220979,-0.9617 -3.82436,-3.59865 -3.82436,-6.28953 0,-3.43576 1.520363,-8.94914 3.462037,-12.55443 5.913359,-10.97996 19.530688,-14.16384 23.113108,-5.4041 0.92942,2.27258 1.06484,3.63538 0.75743,7.62177 -0.64474,8.36081 -3.83874,13.15229 -10.310269,15.46692 -3.87785,1.38695 -11.189093,2.02921 -13.197946,1.15937 z m 13.424214,-3.47771 c 4.987876,-2.41058 7.396291,-6.45365 8.229081,-13.81444 0.9229,-8.15743 -4.920726,-12.15507 -12.468846,-8.53001 -9.343493,4.48729 -14.900817,21.08689 -8.034893,24.00005 2.169707,0.92058 8.792369,0.0274 12.274658,-1.6556 z m -28.141798,14.0555 c -3.868573,-6.10487 -3.775215,-5.79594 -3.753968,-12.42235 0.04322,-13.44563 4.641324,-23.62435 15.588491,-34.50745 6.291179,-6.25433 14.809583,-9.79396 23.570096,-9.79396 2.88623,0 6.80687,1.24512 7.51171,2.38562 0.20659,0.33424 0.67951,0.60773 1.05095,0.60773 1.37605,0 -2.95481,-3.76277 -6.26661,-5.44457 -4.01745,-2.04017 -8.013957,-2.2771 -13.079105,-0.77541 -5.622852,1.66706 -7.726331,3.1449 -15.220465,10.69361 -6.369265,6.41565 -7.651051,8.05365 -10.086216,12.88922 -1.534324,3.04678 -2.789682,6.0534 -2.789682,6.68143 0,0.62803 -0.383434,1.73856 -0.85208,2.46781 -1.124824,1.75037 -2.144863,7.53605 -2.126626,12.06225 0.0249,6.19929 1.745342,11.65527 4.684564,14.85674 1.82191,1.98443 2.958681,2.17681 1.768941,0.29933 z M 39.058225,261.23314 c 5.025233,-2.63468 5.30137,-2.94187 3.416536,-3.80067 -1.125617,-0.51285 -2.220936,-0.53942 -3.967115,-0.0961 -1.953235,0.49577 -2.84222,0.41495 -4.67248,-0.42475 -1.243162,-0.57033 -3.651085,-1.65258 -5.350924,-2.40492 -3.890227,-1.72183 -8.714056,-6.63549 -10.045078,-10.23209 -0.727249,-1.96511 -0.937067,-3.92524 -0.746323,-6.97161 0.343679,-5.48872 2.193647,-9.28666 5.800019,-11.90729 l 2.693993,-1.95763 0.679075,-6.47423 c 0.373501,-3.56082 0.578297,-6.58372 0.455116,-6.71756 -0.123085,-0.13395 -1.336679,0.25843 -2.696641,0.87168 -2.390228,1.07784 -10.111555,8.11908 -10.111555,9.22096 0,0.29802 -0.369859,0.91172 -0.821919,1.36379 -0.452061,0.45207 -1.66436,3.29539 -2.694016,6.3185 -1.6155762,4.74349 -1.872911,6.33871 -1.8781377,11.6432 -0.011312,11.40919 2.9696767,16.54923 12.2314187,21.09079 4.843175,2.37488 5.735463,2.61416 9.578672,2.56853 3.605083,-0.0428 4.81917,-0.35504 8.129359,-2.09052 z M 16.28473,259.19657 c -3.261676,-2.29721 -7.1023961,-7.13767 -8.2367459,-10.38079 -0.643642,-1.84018 -0.7463225,-4.12558 -0.4365162,-9.71557 0.4267416,-7.69965 1.75937,-12.6899 4.7529651,-17.7981 2.945625,-5.02631 11.634701,-12.90791 14.23038,-12.90791 1.270564,0 1.483799,-0.44576 1.932964,-4.04098 0.222195,-1.7777 0.09774,-2.54388 -0.412849,-2.5428 -1.595574,0.005 -12.401571,7.32126 -13.700078,9.2778 -0.218575,0.32926 -1.122515,1.40688 -2.008874,2.39466 -1.798243,2.00406 -5.6585581,9.77988 -7.1330112,14.36803 -1.3422903,4.17693 -1.9324879,10.10936 -1.4391557,14.46615 0.777163,6.86348 4.8174963,12.96797 11.2776989,17.03936 3.64425,2.29665 4.496308,2.18057 1.173222,-0.15975 z m 47.485363,-4.11964 c 1.573288,-3.28332 3.728491,-6.95878 4.789349,-8.16769 4.612587,-5.25619 8.000205,-8.91528 9.112832,-9.84311 0.658532,-0.54916 2.140248,-1.83363 3.292676,-2.85437 3.470931,-3.07431 9.548423,-5.06141 15.648566,-5.11649 l 5.207904,-0.047 1.61322,-6.88467 c 0.88729,-3.78657 2.03368,-8.36638 2.54753,-10.17734 0.51387,-1.81098 0.89717,-3.46513 0.85181,-3.67591 -0.0455,-0.21088 0.60784,-2.77009 1.45157,-5.68733 0.84373,-2.91727 1.80044,-7.32461 2.12601,-9.79413 0.32558,-2.4695 0.80202,-4.75941 1.05876,-5.08868 0.25675,-0.32926 0.81002,-2.88856 1.22952,-5.68735 0.4195,-2.79876 1.03717,-5.76218 1.37261,-6.58534 0.33545,-0.82316 0.55117,-1.84965 0.47938,-2.28104 -0.0717,-0.43143 0.13734,-1.64373 0.46452,-2.69402 0.32727,-1.0503 0.74338,-4.0076 0.92466,-6.57181 0.37315,-5.27768 1.75015,-11.78969 2.8733,-13.58814 0.59101,-0.94634 1.39978,-1.20814 3.75238,-1.21454 5.46591,-0.0159 5.31893,0.15138 6.77824,-7.66587 0.71804,-3.84632 1.59515,-8.87912 1.94912,-11.18397 0.35398,-2.30489 0.80731,-4.59479 1.0074,-5.08868 0.20002,-0.49391 0.68945,-2.7838 1.08748,-5.08869 0.39801,-2.30486 1.06371,-6.01347 1.47933,-8.24136 0.4156,-2.22786 0.64774,-4.14152 0.51588,-4.25255 -0.13191,-0.11112 -3.47259,0.15341 -7.42379,0.58776 -13.58893,1.49369 -46.9954,0.31965 -46.9954,-1.65161 0,-0.281 -1.023727,-0.51093 -2.274944,-0.51093 -1.251218,0 -2.530854,-0.23685 -2.843668,-0.52634 -0.650613,-0.60212 -4.170846,-1.78659 -6.640856,-2.23451 -0.920346,-0.16699 -1.951132,-0.51266 -2.290625,-0.76839 -0.339493,-0.25572 -2.122033,-0.92441 -3.961185,-1.48597 -1.839174,-0.56153 -4.758734,-1.952731 -6.487942,-3.091572 -1.729209,-1.138829 -3.328314,-2.070569 -3.553585,-2.070569 -0.927745,0 -12.231125,45.506891 -12.937082,52.084081 -0.355014,3.3078 -2.301327,14.38952 -3.312067,18.85802 -0.297927,1.31708 -0.968495,5.89689 -1.4902,10.17736 -0.521684,4.28046 -1.332991,9.12969 -1.802882,10.77601 -0.469914,1.64633 -1.242416,5.41795 -1.716673,8.38135 -0.835518,5.22057 -1.250176,8.2254 -3.056701,22.15069 -0.835699,6.44188 -1.329891,19.43926 -0.77739,20.44597 0.153184,0.27906 0.62441,1.78705 1.047214,3.35109 0.422828,1.564 1.00316,2.84366 1.289637,2.84366 0.286479,0 0.52087,0.42611 0.52087,0.94692 0,0.94365 5.768976,6.83576 6.69292,6.83576 0.267313,0 2.440323,0.89696 4.828899,1.99326 2.388577,1.09628 5.689873,2.43538 7.336199,2.97575 2.969474,0.97471 10.500717,3.2418 11.07537,3.33401 0.164723,0.0264 1.586547,-2.63836 3.159834,-5.92172 z m -7.350522,-13.70438 c -0.823164,-0.26184 -2.758707,-1.33065 -4.30122,-2.37517 -2.493068,-1.68823 -2.873515,-2.24642 -3.425518,-5.02615 -0.478309,-2.40853 -0.417261,-4.08982 0.265707,-7.31764 0.487697,-2.30488 1.032845,-5.403 1.211461,-6.88468 0.178526,-1.48172 0.573726,-3.5022 0.878033,-4.49002 0.635158,-2.06185 2.190117,-11.5403 2.754679,-16.79142 0.373703,-3.47609 0.609204,-5.0514 0.845947,-5.65861 0.06426,-0.16472 0.09028,-0.48529 0.0577,-0.71256 -0.07376,-0.51698 0.844003,-7.22091 1.746541,-12.75747 0.375718,-2.30486 0.774493,-4.86418 0.886156,-5.68733 0.11155,-0.82317 0.36712,-2.37426 0.567729,-3.44686 0.2007,-1.0726 0.488875,-2.92012 0.640655,-4.10561 0.151827,-1.18551 0.425996,-2.39819 0.609363,-2.69489 0.183278,-0.29667 0.443984,-1.81665 0.579156,-3.37772 0.314875,-3.63648 1.933958,-16.53385 2.774273,-22.09972 0.546754,-3.62142 0.85113,-4.34561 1.94138,-4.61926 1.596841,-0.40076 5.331668,0.72311 10.825955,3.25772 3.029005,1.39734 5.920168,2.16097 10.429849,2.75479 6.588179,0.86751 7.258635,0.79977 11.22421,-1.13421 3.056248,-1.4905 4.648223,-1.125 3.800493,0.87251 -0.925645,2.18115 -3.079219,11.08852 -6.626809,27.40922 -0.679934,3.12805 -1.743281,7.43847 -2.362985,9.57869 -0.963653,3.32813 -2.977983,12.81421 -3.826962,18.02236 -0.139834,0.85742 -0.676994,3.14734 -1.19379,5.08866 -0.51682,1.94134 -1.769236,7.43601 -2.783143,12.21038 -3.531999,16.63151 -6.154853,22.36548 -11.814181,25.82753 -1.229088,0.75186 -2.613237,1.73642 -3.075933,2.18792 -0.462672,0.45147 -1.405577,1.03207 -2.095333,1.29021 -2.013899,0.75371 -8.902835,1.198 -10.533457,0.67933 z m 11.075347,-3.80563 c 6.217213,-3.10168 9.050859,-6.66303 11.433755,-14.36998 0.837465,-2.70858 2.042319,-6.36302 2.677476,-8.12099 0.635135,-1.75795 1.154804,-3.9982 1.154804,-4.97835 0,-0.98015 0.242719,-2.23585 0.539356,-2.79041 0.296638,-0.55456 0.68351,-1.8165 0.859728,-2.80433 0.176264,-0.98778 0.71736,-3.54708 1.202569,-5.68733 1.761497,-7.76988 2.218514,-9.96758 3.112295,-14.96669 1.382181,-7.73071 1.583559,-8.63187 2.073499,-9.27934 0.249166,-0.32926 0.930641,-2.88857 1.514367,-5.68735 0.583748,-2.79877 1.253479,-5.35808 1.488278,-5.68734 0.234821,-0.32927 0.445567,-1.51525 0.468329,-2.63553 0.02286,-1.12027 0.260253,-2.19788 0.527817,-2.39466 0.267538,-0.19685 0.507089,-1.03131 0.532317,-1.85449 0.09141,-2.98211 0.890703,-7.11405 2.041888,-10.55509 1.679724,-5.02085 1.609151,-5.85953 -0.441426,-5.2468 -4.446054,1.32847 -19.995785,-0.16246 -22.599701,-2.16706 -0.329266,-0.25346 -2.408103,-0.99977 -4.619647,-1.65843 -2.964315,-0.88287 -4.16279,-1.01783 -4.560613,-0.51344 -0.296797,0.37625 -0.712565,2.83932 -0.923922,5.47346 -0.211334,2.63415 -0.792526,7.21394 -1.291515,10.17736 -0.498989,2.96341 -1.283596,7.81261 -1.743577,10.77602 -0.459981,2.96341 -1.401142,8.8902 -2.091463,13.17067 -0.690322,4.28047 -1.78573,12.09311 -2.434238,17.36138 -0.648506,5.26826 -1.747626,12.67678 -2.442473,16.46335 -0.694846,3.78658 -1.38415,7.69288 -1.531767,8.68068 -0.147754,0.98779 -0.678578,4.00547 -1.179852,6.70593 -0.501297,2.70045 -0.808004,6.14383 -0.681611,7.65197 0.20138,2.40316 0.516549,2.93688 2.549974,4.31863 1.276084,0.86714 3.144538,1.77386 4.152087,2.01494 2.658243,0.63608 7.452863,-0.0203 10.213266,-1.39678 z m 7.629918,-87.39313 c -1.249204,-1.56145 -1.365708,-3.35599 -0.355377,-5.4747 0.988701,-2.07327 1.152905,-2.1583 4.167587,-2.1583 2.679286,0 3.32028,0.23128 4.382179,1.58129 0.791666,1.00642 1.045947,1.82259 0.699485,2.24502 -0.299398,0.365 -0.637533,1.32613 -0.751391,2.1358 -0.135987,0.96687 -0.720731,1.61418 -1.703708,1.88601 -2.492705,0.68929 -5.803685,0.57867 -6.438775,-0.21517 z m 6.482672,-1.69024 c 1.115229,-1.11523 1.153898,-1.37346 0.381057,-2.54431 -1.133625,-1.71739 -4.332288,-2.08989 -5.064491,-0.58977 -0.290619,0.59545 -0.476905,1.41941 -0.413934,1.83098 0.06291,0.41158 0.148205,0.99799 0.189386,1.3031 0.07128,0.52852 1.299118,1.02152 2.918519,1.17179 0.411582,0.0383 1.30688,-0.4891 1.989553,-1.17179 z M 37.262222,255.1017 c 0,-0.32299 -0.67713,-0.75721 -1.504704,-0.96491 -1.981793,-0.4974 -5.538478,-4.61867 -7.767264,-9.00027 -1.641553,-3.22715 -1.806592,-4.11923 -2.007224,-10.84994 -0.165175,-5.5449 -0.410359,-7.33367 -1.004766,-7.33367 -1.306721,0 -4.248408,4.30773 -4.984661,7.29944 -1.597316,6.49043 -0.190971,11.40458 4.357355,15.22612 4.635125,3.89446 12.911264,7.49896 12.911264,5.62323 z m 75.022458,-22.22763 c 0.71922,-0.36531 2.21401,-1.64498 3.32178,-2.84367 5.44471,-5.89173 8.03652,-8.46549 8.52481,-8.46549 0.29502,0 0.53642,-0.38486 0.53642,-0.85525 0,-0.47039 0.35658,-1.21183 0.79241,-1.64765 1.20706,-1.20707 6.03587,-8.37616 6.78212,-10.06912 0.36288,-0.82316 1.58912,-3.51718 2.72498,-5.98669 2.3004,-5.00123 6.13161,-15.90237 7.36414,-20.95336 0.72205,-2.95908 1.11651,-5.8082 2.65224,-19.15737 0.24621,-2.14023 0.5062,-7.39352 0.57773,-11.67402 0.0714,-4.28047 0.21358,-8.53861 0.3156,-9.46252 0.17761,-1.60754 -0.15862,-5.434 -1.36212,-15.50266 -0.30308,-2.53577 -1.15347,-6.17269 -1.88976,-8.08202 -3.50158,-9.08041 -4.95656,-11.50207 -5.61162,-9.34005 -0.9421,3.10933 -1.35438,8.89147 -0.99472,13.95056 1.17268,16.49457 -1.47416,43.70177 -6.02796,61.96208 -3.18756,12.78189 -9.78336,28.00586 -14.4205,33.28444 -1.25248,1.42574 -2.29579,2.73671 -2.31848,2.91327 -0.36922,2.87363 -0.59393,4.18231 -1.21458,7.07389 -0.40425,1.88347 -0.97006,3.89592 -1.25733,4.47214 -0.60789,1.21936 -0.29686,1.29861 1.50484,0.38349 z m -1.64596,-7.11849 c 0.22514,-1.81097 0.56476,-3.55734 0.75504,-3.88082 0.19028,-0.32347 0.38363,-0.99697 0.42974,-1.49667 0.0462,-0.49969 0.64817,-3.1984 1.33786,-5.99719 0.68968,-2.79878 1.81937,-7.51329 2.51042,-10.47669 0.69105,-2.96341 1.62411,-6.735 2.07348,-8.38136 0.44937,-1.64632 1.23693,-5.01382 1.75013,-7.48333 1.36175,-6.55246 2.58023,-11.82753 3.59543,-15.56537 1.70494,-6.27743 1.63684,-6.64082 -1.41648,-7.55583 -3.92193,-1.17531 -4.07772,-1.10576 -4.51907,2.01818 -0.22107,1.564 -0.77925,4.59477 -1.24061,6.735 -0.8488,3.93758 -2.23637,11.12772 -2.88829,14.96668 -0.96524,5.68383 -1.72853,9.11448 -3.06354,13.76937 -1.42412,4.96565 -2.01358,7.47942 -4.49225,19.15736 -0.66394,3.12805 -1.35026,6.16321 -1.52517,6.74482 -0.24059,0.80003 0.31088,1.33903 2.26529,2.21406 l 2.58328,1.15658 0.71782,-1.31606 c 0.3948,-0.72383 0.90192,-2.79775 1.12692,-4.60873 z m 6.73236,-13.14645 c 0.72046,-0.97447 1.30993,-1.94113 1.30993,-2.14816 0,-0.20704 0.8082,-2.12255 1.796,-4.2567 0.9878,-2.13414 1.79601,-4.00483 1.79601,-4.15706 0,-0.15228 0.44708,-1.2784 0.99354,-2.50257 0.54645,-1.22418 1.05158,-2.42782 1.12251,-2.67476 0.0708,-0.24696 0.19617,-0.5837 0.27862,-0.74834 0.0823,-0.16472 0.1939,-0.50139 0.24796,-0.74834 0.41264,-1.88465 2.97177,-8.97346 3.44764,-9.54996 0.32669,-0.39578 0.43017,-1.23574 0.22994,-1.8666 -0.20026,-0.63083 -0.10369,-1.83171 0.2145,-2.66856 1.35874,-3.57381 4.27384,-19.51401 4.23942,-23.18195 -0.0135,-1.48171 0.26463,-4.8492 0.61896,-7.48334 1.38522,-10.29787 1.47157,-12.0645 1.20714,-24.69504 -0.0595,-2.84471 -1.07331,-1.17147 -1.44504,2.38507 -0.40497,3.8746 -0.96011,7.19985 -2.47523,14.82662 -0.49061,2.46949 -1.00207,5.1635 -1.13661,5.98667 -0.13463,0.82317 -0.52788,2.84367 -0.87405,4.49002 -0.34617,1.64633 -1.04292,5.14854 -1.54833,7.78267 -0.5054,2.63415 -1.08833,5.19345 -1.29537,5.68734 -0.20704,0.49392 -0.73573,2.5144 -1.17486,4.49002 -3.31679,14.92267 -5.43511,24.05254 -7.47211,32.20457 -1.29943,5.20036 -2.36262,9.71283 -2.36262,10.02769 0,1.08183 0.97403,0.56995 2.28207,-1.19929 z m 8.79814,-54.32815 c 0.54765,-2.56567 1.12978,-5.14973 1.29358,-5.74238 0.26768,-0.9683 -0.0867,-1.05932 -3.49363,-0.89801 l -3.79149,0.17943 -1.1915,4.69222 c -1.3977,5.50421 -1.09062,6.05678 3.49824,6.29432 l 2.68906,0.13915 z m 2.3898,-51.58885 c 7.00403,-0.96946 8.91152,-1.93946 10.61583,-5.39837 1.17694,-2.388573 1.34404,-3.59125 1.25622,-9.04106 -0.0557,-3.457304 -0.46612,-7.363622 -0.91201,-8.680677 -0.80161,-2.367738 -0.84086,-2.392407 -3.49071,-2.192016 -1.474,0.111499 -4.51051,0.840109 -6.74781,1.619235 -4.7472,1.653181 -12.88228,2.626458 -22.57288,2.700602 -8.714385,0.06672 -11.974908,-0.455006 -18.550258,-2.96798 -1.806321,-0.690347 -3.894164,-1.255178 -4.639673,-1.255178 -0.745484,0 -1.355435,-0.207708 -1.355435,-0.461604 0,-0.253896 -2.087867,-1.525657 -4.639695,-2.826154 -2.551807,-1.30051 -5.717274,-3.135627 -7.034336,-4.078059 -2.23752,-1.601053 -5.880095,-3.410198 -6.866172,-3.410198 -0.503808,0 -2.241366,1.549074 -3.795443,3.383743 -0.992186,1.171348 -7.027751,18.147412 -6.977225,19.624649 0.02489,0.725843 4.381001,3.579035 6.410287,4.198574 0.738901,0.225593 1.681783,0.739537 2.095333,1.142092 0.901679,0.877763 10.184462,3.843771 16.017902,5.118021 1.481694,0.32366 4.041012,0.88747 5.687339,1.25292 1.646326,0.36546 4.59883,0.98702 6.561072,1.38126 4.736538,0.95161 31.821074,0.87524 38.937664,-0.10977 z m 52.42481,-16.555753 c 7.05549,-3.57529 10.51314,-8.893581 11.14983,-17.149813 0.36992,-4.797241 -0.42985,-8.272591 -1.90377,-8.272591 -0.40954,0 -1.4296,0.538824 -2.2668,1.197345 -0.83719,0.658534 -1.81644,1.197345 -2.17609,1.197345 -0.35963,0 -0.65388,0.269398 -0.65388,0.598666 0,0.329267 -0.40412,0.598654 -0.89802,0.598654 -0.49389,0 -0.89798,0.245251 -0.89798,0.545012 0,0.29976 -1.68688,1.610379 -3.74863,2.912452 -4.58179,2.893675 -7.38538,5.922415 -10.29009,11.116555 -2.5142,4.495793 -2.44437,5.673555 0.44615,7.524993 2.7813,1.781487 7.41203,1.670817 11.23928,-0.268618 z m -73.85184,-6.489801 c 0.0966,-0.09661 0.47342,-2.981622 0.83738,-6.411131 0.7933,-7.475196 0.35967,-9.173895 -2.48705,-9.743253 -2.39569,-0.47913 -7.637681,-0.496729 -9.954281,-0.03349 l -1.75059,0.350129 1.06036,4.888202 c 1.873521,8.637007 2.494469,10.483311 3.707878,11.024751 1.017119,0.453851 8.119433,0.391578 8.586303,-0.07541 z m 6.22749,-3.424747 c -0.007,-2.401993 -0.54397,-26.240857 -0.61583,-27.331538 -0.0287,-0.436241 -0.86677,-0.748332 -2.00947,-0.748332 h -1.96012 l 0.49628,5.837013 c 0.27295,3.210364 0.491,10.196844 0.48457,15.525517 -0.0113,8.665123 0.0966,9.713735 1.01486,9.927247 1.55057,0.360535 2.59618,-0.935461 2.58971,-3.209907 z m 8.26673,2.671345 c 1.38553,-0.277114 2.61729,-1.314848 4.56484,-3.845856 1.46701,-1.906518 2.6673,-3.724692 2.6673,-4.040428 0,-1.092629 -6.83549,-3.881352 -9.94833,-4.05871 l -3.06367,-0.174445 -0.4147,5.649705 c -0.22811,3.107336 -0.24791,5.919624 -0.0442,6.249523 0.42004,0.679619 3.41343,0.78534 6.23859,0.220384 z M 168.355,80.728356 c 1.45925,-2.647456 10.37231,-11.823683 11.48459,-11.823683 0.34994,0 2.48821,-1.34702 4.75173,-2.993355 2.26349,-1.646322 4.38898,-2.993343 4.7233,-2.993343 0.90004,0 0.74549,-0.975212 -0.56022,-3.534622 -1.3388,-2.624237 -10.0389,-8.756281 -18.53925,-13.066914 -5.34253,-2.709266 -6.63407,-3.050072 -6.63407,-1.750591 0,0.442851 -0.57999,1.318419 -1.28884,1.945656 -0.70885,0.627261 -2.2606,2.622154 -3.44832,4.433136 -2.97349,4.53376 -7.11091,10.155707 -8.89304,12.083843 l -1.48547,1.60718 2.02017,0.839167 c 1.11108,0.461542 2.71634,1.011874 3.56725,1.222981 3.18935,0.791305 10.72557,9.551185 10.72557,12.467122 0,1.056438 1.35992,4.096539 1.83545,4.103075 0.18622,0.0025 0.96983,-1.14028 1.74115,-2.539652 z m -73.301671,0 C 94.253697,76.576874 92.72546,70.973419 92.24498,70.431247 91.967779,70.118464 91.740968,68.94053 91.740968,67.81362 c 0,-1.703697 -0.143455,-1.929836 -0.85156,-1.342171 -1.00377,0.833052 -2.235212,4.076087 -1.649291,4.343489 0.223101,0.101826 1.013274,2.59477 1.75609,5.53994 1.305567,5.176368 1.947579,6.290527 3.635991,6.309962 0.576509,0.0062 0.692607,-0.527152 0.421131,-1.936484 z m 36.011921,-0.09848 c 2.43865,-0.910072 3.35331,-1.650079 4.43986,-3.592008 0.75265,-1.34521 1.65288,-2.738343 2.00052,-3.095864 0.55137,-0.567101 3.4853,-3.818209 10.48864,-11.622622 1.03414,-1.152435 2.99086,-3.711758 4.34826,-5.687347 1.35741,-1.975614 2.62292,-3.726702 2.81226,-3.891335 0.1894,-0.16472 0.85002,-1.242253 1.46819,-2.394682 0.61814,-1.152429 1.91047,-3.105574 2.87186,-4.340342 1.08559,-1.394241 1.44577,-2.244987 0.95046,-2.244987 -0.75428,0 -8.54156,8.036069 -12.18277,12.57202 -0.92512,1.152434 -3.04287,3.592045 -4.7061,5.421383 -4.80659,5.28659 -9.53262,10.776894 -10.5074,12.206603 -0.49389,0.724393 -2.04294,2.496726 -3.44235,3.938479 -2.22372,2.291102 -3.42914,4.655131 -2.07859,4.076446 0.25616,-0.109764 1.84789,-0.715338 3.53716,-1.345744 z M 89.935938,79.8304 c -0.01358,-1.671897 -1.598358,-5.774128 -2.322779,-6.015608 -0.363838,-0.121299 -0.661539,0.09711 -0.661539,0.485306 0,0.388179 -0.568183,1.503752 -1.262644,2.479014 -1.409831,1.979955 -1.269523,2.29863 1.455287,3.305072 2.605478,0.962388 2.801992,0.944516 2.791675,-0.253784 z m -4.330909,-6.024749 c 1.200015,-1.872349 2.532574,-4.41793 2.961217,-5.65686 0.428664,-1.238931 1.029633,-2.72062 1.335502,-3.29267 1.05959,-1.981753 3.036562,-6.508827 3.036562,-6.953488 0,-0.999498 3.065934,-6.838076 4.06606,-7.743172 0.856289,-0.774922 1.963781,-0.91367 5.45926,-0.683872 2.41179,0.158614 4.55539,0.392327 4.76356,0.519489 0.20817,0.127163 4.68888,0.395992 9.95715,0.59737 5.26826,0.201379 11.1163,0.522861 12.99559,0.714374 3.37608,0.344041 3.4214,0.327841 3.79033,-1.353965 0.20545,-0.936185 0.6472,-2.427518 0.98178,-3.314036 1.80996,-4.795502 1.35422,-14.097745 -1.03553,-21.136583 -1.32298,-3.896699 -2.25359,-4.551202 -5.95616,-4.189015 -1.64632,0.161103 -4.61034,0.41337 -6.58668,0.560693 -4.98451,0.371601 -14.74847,2.937118 -18.45782,4.849875 -5.675686,2.92671 -8.703402,6.968174 -9.993514,13.339544 -0.311753,1.539641 -1.133717,4.819849 -1.826572,7.289362 -0.692855,2.46949 -1.730951,6.241112 -2.306894,8.381336 -0.575942,2.140247 -1.473321,4.71289 -1.994191,5.717025 -0.520868,1.00411 -1.54541,3.698127 -2.276731,5.986661 -0.731344,2.288572 -1.786115,4.834512 -2.343934,5.657679 -1.3932,2.055896 -1.832048,3.430699 -1.429765,4.479037 0.561665,1.463694 2.441251,0.0062 4.86078,-3.768784 z M 81.57782,69.761452 c 1.378653,-4.007165 1.164444,-4.17465 -4.702596,-3.676794 -5.699852,0.483693 -6.015383,0.673281 -5.805429,3.488248 0.207941,2.789269 1.558037,4.502914 3.963696,5.031293 0.949874,0.208614 1.898344,0.656475 2.107688,0.995193 0.652013,1.054974 3.234072,-2.342597 4.436641,-5.83794 z M 68.750457,68.755059 c -0.209523,-0.74085 -1.070428,-4.714503 -1.913323,-8.83034 -0.842872,-4.115862 -1.637389,-7.991271 -1.765593,-8.612037 -0.312769,-1.514548 -0.773067,-1.901014 -1.453636,-1.220445 -0.353431,0.353431 -0.24489,2.800199 0.290325,6.545444 0.470095,3.289569 0.863257,7.252071 0.873711,8.805584 0.01584,2.456318 0.2336,2.940978 1.665311,3.717697 2.279899,1.236873 2.74445,1.154977 2.303205,-0.405903 z m 30.650884,-3.672651 c 2.072979,-0.141192 4.724889,0.0062 5.893159,0.329764 1.16826,0.322569 2.24799,0.462607 2.3994,0.311183 0.37244,-0.37244 0.37686,-1.591415 0.0285,-7.865372 -0.34367,-6.189539 -0.35999,-6.206011 -6.2123,-6.272557 -3.402259,-0.03869 -3.798318,0.0948 -4.908028,1.653182 -3.59463,5.048173 -4.892844,13.321347 -1.946538,12.404489 0.537228,-0.167213 2.672859,-0.419472 4.745837,-0.560689 z M 87.007598,54.087697 c 0.407283,-1.893293 0.941298,-3.711741 1.186708,-4.041007 0.245387,-0.329266 0.640113,-1.676262 0.877151,-2.993346 0.237016,-1.317062 0.628845,-2.664058 0.870725,-2.993323 0.241858,-0.329265 0.591328,-1.78935 0.776597,-3.244616 0.185314,-1.455289 0.724374,-2.862834 1.198045,-3.12793 0.526117,-0.29442 0.752227,-1.051988 0.581147,-1.947036 -0.190745,-0.99798 0.349471,-2.386654 1.694453,-4.355436 2.533886,-3.709121 2.783617,-3.898824 9.372226,-7.11923 3.04573,-1.488686 5.53767,-2.834053 5.53767,-2.989657 0,-1.056219 -4.05138,-7.129458 -5.75208,-8.622669 -2.32916,-2.045058 -3.888688,-2.295037 -5.100309,-0.817552 -0.451879,0.551053 -2.438016,2.185885 -4.41363,3.63296 -4.498571,3.295073 -7.291013,5.613145 -11.420904,9.480745 -3.814925,3.572638 -3.866492,3.925096 -1.788672,12.225739 0.783001,3.128044 1.999532,7.976765 2.703384,10.774954 1.450084,5.764952 1.718031,7.048495 1.781023,8.532069 0.09593,2.258185 1.193767,0.87191 1.896466,-2.394665 z M 36.96287,52.110459 c 2.739495,-0.713333 4.986949,-1.690336 6.286021,-2.732618 2.387219,-1.915314 7.563034,-2.690825 15.471464,-2.318139 7.168014,0.337797 7.796474,0.281931 8.079241,-0.718038 0.687267,-2.430505 1.213476,-5.309267 1.06837,-5.84498 -0.08485,-0.313518 -0.288038,-2.334002 -0.451427,-4.490019 -0.761144,-10.044085 -1.216802,-12.189853 -2.895078,-13.633443 -1.513145,-1.301563 -2.041911,-1.37399 -9.194018,-1.259498 -10.110609,0.16178 -16.40025,-1.395012 -19.50501,-4.828042 -1.144735,-1.265789 -2.7509,-1.704364 -2.7509,-0.751164 0,0.280436 -0.839929,1.388788 -1.86653,2.463041 -2.89863,3.033124 -5.90295,10.182516 -6.966432,16.578051 l -0.931817,5.603665 1.680696,4.174917 c 1.832455,4.551903 2.409054,5.234689 5.988751,7.091467 2.821134,1.463322 2.890484,1.471013 5.986669,0.6648 z M 23.955781,46.62276 c -2.321058,-4.735361 -2.399324,-5.086664 -2.078521,-9.328512 0.552298,-7.302689 4.474044,-17.492469 8.313405,-21.600591 2.049243,-2.192675 1.982652,-2.332531 -2.147305,-4.510383 -5.068134,-2.6726328 -10.595838,-1.9241384 -14.493781,1.962559 -6.6539103,6.6347 -6.2647064,25.384472 0.663938,31.984508 1.397862,1.331566 4.388289,3.118043 7.18401,4.29174 2.634122,1.10584 4.830031,2.035552 4.879742,2.065986 0.04977,0.03055 -0.994946,-2.158959 -2.321488,-4.865307 z m 117.396929,3.393411 c 5.30368,-1.847026 8.40609,-4.379352 10.59743,-8.650115 2.42826,-4.732444 0.39404,-13.264583 -3.62348,-15.198157 -3.77539,-1.817045 -8.48972,-3.435042 -11.02494,-3.783857 -3.02108,-0.415655 -2.97441,-0.821172 -0.75658,6.572432 0.96748,3.225224 1.17298,5.305352 1.00541,10.177334 -0.11584,3.367978 -0.45987,7.403242 -0.76449,8.967252 -0.51883,2.663809 -0.47467,2.843126 0.6982,2.834958 0.68865,-0.0045 2.42946,-0.418709 3.86845,-0.919847 z m 15.64302,-25.518492 c 0,-2.290036 -0.27079,-4.669698 -0.60178,-5.288133 -0.65093,-1.216282 -3.30168,-4.091335 -4.8456,-5.255642 -1.42547,-1.074954 -6.9309,-1.967696 -9.55098,-1.548714 -2.25922,0.361259 -2.28187,0.390788 -1.36858,1.784622 0.51075,0.779516 1.5501,2.946327 2.30963,4.815142 1.25274,3.082291 1.64375,3.497585 4.21019,4.471804 3.37396,1.280722 5.23151,2.913269 6.60276,5.802961 l 1.01376,2.136356 1.11531,-1.377339 c 0.84903,-1.048503 1.11529,-2.371425 1.11529,-5.541057 z M 114.27998,20.09724 c 0.15772,-0.41131 1.5494,-1.079185 3.09234,-1.48416 5.6421,-1.480856 6.13779,-1.841528 5.74947,-4.183538 -0.90274,-5.4445296 -2.05408,-8.2488515 -3.98673,-9.7103401 -2.74685,-2.0772085 -5.51304,-2.4913248 -8.64688,-1.2945024 -1.42076,0.542591 -2.58956,1.2866738 -2.59735,1.6535222 -0.007,0.3668483 -1.08781,1.4613522 -2.40005,2.4322457 l -2.38593,1.7652308 2.18758,2.2402798 c 2.27078,2.325471 4.5062,5.655752 5.6265,8.382193 0.48431,1.178653 0.95807,1.500269 1.86185,1.263933 0.66671,-0.174453 1.34136,-0.653531 1.4992,-1.064864 z m 25.31519,-3.259595 c -1.05801,-1.985005 -2.24873,-3.609066 -2.64607,-3.609066 -1.64732,0 -15.87343,5.618915 -15.87343,6.269572 0,0.139155 2.76135,0.27944 6.13635,0.311774 3.37499,0.03235 7.88746,0.401966 10.02768,0.821354 2.14024,0.419388 3.97858,0.549425 4.0852,0.288966 0.10654,-0.260434 -0.67174,-2.097618 -1.72973,-4.0826 z"
         style="fill:#000000;stroke-width:0.59866756" />
    </g>
  </g>
</svg>
